{
	"asset":{
		"generator":"Khronos glTF Blender I/O v4.1.63",
		"version":"2.0"
	},
	"scene":0,
	"scenes":[
		{
			"name":"Scene",
			"nodes":[
				0,
				1
			]
		}
	],
	"nodes":[
		{
			"mesh":0,
			"name":"grass"
		},
		{
			"mesh":1,
			"name":"Cube",
			"rotation":[
				0,
				0.2588190734386444,
				0,
				0.9659258127212524
			],
			"scale":[
				1.1853094100952148,
				1.1853092908859253,
				1.1853094100952148
			],
			"translation":[
				0,
				0.02514244243502617,
				0
			]
		}
	],
	"animations":[
		{
			"channels":[
				{
					"sampler":0,
					"target":{
						"node":1,
						"path":"translation"
					}
				},
				{
					"sampler":1,
					"target":{
						"node":1,
						"path":"rotation"
					}
				},
				{
					"sampler":2,
					"target":{
						"node":1,
						"path":"scale"
					}
				}
			],
			"name":"Action.001",
			"samplers":[
				{
					"input":16,
					"interpolation":"STEP",
					"output":17
				},
				{
					"input":16,
					"interpolation":"STEP",
					"output":18
				},
				{
					"input":16,
					"interpolation":"STEP",
					"output":19
				}
			]
		}
	],
	"materials":[
		{
			"doubleSided":true,
			"name":"grass base",
			"pbrMetallicRoughness":{
				"baseColorTexture":{
					"index":0
				},
				"metallicFactor":0,
				"roughnessFactor":0.5
			}
		},
		{
			"doubleSided":true,
			"name":"grass.001",
			"pbrMetallicRoughness":{
				"baseColorFactor":[
					0.04217253252863884,
					0.22893014550209045,
					0.10706626623868942,
					1
				],
				"metallicFactor":0,
				"roughnessFactor":0.5
			}
		},
		{
			"doubleSided":true,
			"name":"grass.002",
			"pbrMetallicRoughness":{
				"baseColorFactor":[
					0.00620546517893672,
					0.054181866347789764,
					0.004964110907167196,
					1
				],
				"metallicFactor":0,
				"roughnessFactor":0.5
			}
		},
		{
			"doubleSided":true,
			"name":"grass",
			"pbrMetallicRoughness":{
				"baseColorFactor":[
					0.021306250244379044,
					0.16437377035617828,
					0.04004855826497078,
					1
				],
				"metallicFactor":0,
				"roughnessFactor":0.5
			}
		}
	],
	"meshes":[
		{
			"name":"Cylinder",
			"primitives":[
				{
					"attributes":{
						"POSITION":0,
						"NORMAL":1,
						"TEXCOORD_0":2
					},
					"indices":3,
					"material":0
				}
			]
		},
		{
			"name":"Cube.001",
			"primitives":[
				{
					"attributes":{
						"POSITION":4,
						"NORMAL":5,
						"TEXCOORD_0":6
					},
					"indices":7,
					"material":1
				},
				{
					"attributes":{
						"POSITION":8,
						"NORMAL":9,
						"TEXCOORD_0":10
					},
					"indices":11,
					"material":2
				},
				{
					"attributes":{
						"POSITION":12,
						"NORMAL":13,
						"TEXCOORD_0":14
					},
					"indices":15,
					"material":3
				}
			]
		}
	],
	"textures":[
		{
			"sampler":0,
			"source":0
		}
	],
	"images":[
		{
			"mimeType":"image/png",
			"name":"grass6",
			"uri":"hex_grass/grass6.png"
		}
	],
	"accessors":[
		{
			"bufferView":0,
			"componentType":5126,
			"count":36,
			"max":[
				0.8660253882408142,
				0.125,
				1
			],
			"min":[
				-0.8660253882408142,
				-0.125,
				-1
			],
			"type":"VEC3"
		},
		{
			"bufferView":1,
			"componentType":5126,
			"count":36,
			"type":"VEC3"
		},
		{
			"bufferView":2,
			"componentType":5126,
			"count":36,
			"type":"VEC2"
		},
		{
			"bufferView":3,
			"componentType":5123,
			"count":60,
			"type":"SCALAR"
		},
		{
			"bufferView":4,
			"componentType":5126,
			"count":2664,
			"max":[
				0.7495527267456055,
				0.3538215458393097,
				0.7398003339767456
			],
			"min":[
				-0.7789508104324341,
				-0.00807584635913372,
				-0.7277688980102539
			],
			"type":"VEC3"
		},
		{
			"bufferView":5,
			"componentType":5126,
			"count":2664,
			"type":"VEC3"
		},
		{
			"bufferView":6,
			"componentType":5126,
			"count":2664,
			"type":"VEC2"
		},
		{
			"bufferView":7,
			"componentType":5123,
			"count":3996,
			"type":"SCALAR"
		},
		{
			"bufferView":8,
			"componentType":5126,
			"count":3192,
			"max":[
				0.8136110901832581,
				0.35438787937164307,
				0.754905104637146
			],
			"min":[
				-0.7439407110214233,
				-0.008088773116469383,
				-0.7218260169029236
			],
			"type":"VEC3"
		},
		{
			"bufferView":9,
			"componentType":5126,
			"count":3192,
			"type":"VEC3"
		},
		{
			"bufferView":10,
			"componentType":5126,
			"count":3192,
			"type":"VEC2"
		},
		{
			"bufferView":11,
			"componentType":5123,
			"count":4788,
			"type":"SCALAR"
		},
		{
			"bufferView":12,
			"componentType":5126,
			"count":5280,
			"max":[
				0.7185138463973999,
				0.3530616760253906,
				0.7139292359352112
			],
			"min":[
				-0.8202730417251587,
				-0.008058502338826656,
				-0.7239530086517334
			],
			"type":"VEC3"
		},
		{
			"bufferView":13,
			"componentType":5126,
			"count":5280,
			"type":"VEC3"
		},
		{
			"bufferView":14,
			"componentType":5126,
			"count":5280,
			"type":"VEC2"
		},
		{
			"bufferView":15,
			"componentType":5123,
			"count":7920,
			"type":"SCALAR"
		},
		{
			"bufferView":16,
			"componentType":5126,
			"count":2,
			"max":[
				5.416666666666667
			],
			"min":[
				0.041666666666666664
			],
			"type":"SCALAR"
		},
		{
			"bufferView":17,
			"componentType":5126,
			"count":2,
			"type":"VEC3"
		},
		{
			"bufferView":18,
			"componentType":5126,
			"count":2,
			"type":"VEC4"
		},
		{
			"bufferView":19,
			"componentType":5126,
			"count":2,
			"type":"VEC3"
		}
	],
	"bufferViews":[
		{
			"buffer":0,
			"byteLength":432,
			"byteOffset":0,
			"target":34962
		},
		{
			"buffer":0,
			"byteLength":432,
			"byteOffset":432,
			"target":34962
		},
		{
			"buffer":0,
			"byteLength":288,
			"byteOffset":864,
			"target":34962
		},
		{
			"buffer":0,
			"byteLength":120,
			"byteOffset":1152,
			"target":34963
		},
		{
			"buffer":0,
			"byteLength":31968,
			"byteOffset":1272,
			"target":34962
		},
		{
			"buffer":0,
			"byteLength":31968,
			"byteOffset":33240,
			"target":34962
		},
		{
			"buffer":0,
			"byteLength":21312,
			"byteOffset":65208,
			"target":34962
		},
		{
			"buffer":0,
			"byteLength":7992,
			"byteOffset":86520,
			"target":34963
		},
		{
			"buffer":0,
			"byteLength":38304,
			"byteOffset":94512,
			"target":34962
		},
		{
			"buffer":0,
			"byteLength":38304,
			"byteOffset":132816,
			"target":34962
		},
		{
			"buffer":0,
			"byteLength":25536,
			"byteOffset":171120,
			"target":34962
		},
		{
			"buffer":0,
			"byteLength":9576,
			"byteOffset":196656,
			"target":34963
		},
		{
			"buffer":0,
			"byteLength":63360,
			"byteOffset":206232,
			"target":34962
		},
		{
			"buffer":0,
			"byteLength":63360,
			"byteOffset":269592,
			"target":34962
		},
		{
			"buffer":0,
			"byteLength":42240,
			"byteOffset":332952,
			"target":34962
		},
		{
			"buffer":0,
			"byteLength":15840,
			"byteOffset":375192,
			"target":34963
		},
		{
			"buffer":0,
			"byteLength":8,
			"byteOffset":391032
		},
		{
			"buffer":0,
			"byteLength":24,
			"byteOffset":391040
		},
		{
			"buffer":0,
			"byteLength":32,
			"byteOffset":391064
		},
		{
			"buffer":0,
			"byteLength":24,
			"byteOffset":391096
		}
	],
	"samplers":[
		{
			"magFilter":9728,
			"minFilter":9984
		}
	],
	"buffers":[
		{
			"byteLength":391120,
			"uri":"hex_grass_3.bin"
		}
	]
}
