{
	"asset":{
		"generator":"Khronos glTF Blender I/O v4.1.63",
		"version":"2.0"
	},
	"scene":0,
	"scenes":[
		{
			"name":"Scene",
			"nodes":[
				0
			]
		}
	],
	"nodes":[
		{
			"mesh":0,
			"name":"grass"
		}
	],
	"materials":[
		{
			"doubleSided":true,
			"name":"grass base",
			"pbrMetallicRoughness":{
				"baseColorTexture":{
					"index":0
				},
				"metallicFactor":0,
				"roughnessFactor":0.5
			}
		},
		{
			"doubleSided":true,
			"name":"grass.001",
			"pbrMetallicRoughness":{
				"baseColorFactor":[
					0.04217253252863884,
					0.22893014550209045,
					0.10706626623868942,
					1
				],
				"metallicFactor":0,
				"roughnessFactor":0.5
			}
		},
		{
			"doubleSided":true,
			"name":"grass.002",
			"pbrMetallicRoughness":{
				"baseColorFactor":[
					0.00620546517893672,
					0.054181866347789764,
					0.004964110907167196,
					1
				],
				"metallicFactor":0,
				"roughnessFactor":0.5
			}
		},
		{
			"doubleSided":true,
			"name":"grass",
			"pbrMetallicRoughness":{
				"baseColorFactor":[
					0.021306250244379044,
					0.16437377035617828,
					0.04004855826497078,
					1
				],
				"metallicFactor":0,
				"roughnessFactor":0.5
			}
		}
	],
	"meshes":[
		{
			"name":"Cylinder",
			"primitives":[
				{
					"attributes":{
						"POSITION":0,
						"NORMAL":1,
						"TEXCOORD_0":2
					},
					"indices":3,
					"material":0
				},
				{
					"attributes":{
						"POSITION":4,
						"NORMAL":5,
						"TEXCOORD_0":6
					},
					"indices":7,
					"material":1
				},
				{
					"attributes":{
						"POSITION":8,
						"NORMAL":9,
						"TEXCOORD_0":10
					},
					"indices":11,
					"material":2
				},
				{
					"attributes":{
						"POSITION":12,
						"NORMAL":13,
						"TEXCOORD_0":14
					},
					"indices":15,
					"material":3
				}
			]
		}
	],
	"textures":[
		{
			"sampler":0,
			"source":0
		}
	],
	"images":[
		{
			"mimeType":"image/png",
			"name":"grass6",
			"uri":"hex_grass/grass6.png"
		}
	],
	"accessors":[
		{
			"bufferView":0,
			"componentType":5126,
			"count":36,
			"max":[
				0.8660253882408142,
				0.125,
				1
			],
			"min":[
				-0.8660253882408142,
				-0.125,
				-1
			],
			"type":"VEC3"
		},
		{
			"bufferView":1,
			"componentType":5126,
			"count":36,
			"type":"VEC3"
		},
		{
			"bufferView":2,
			"componentType":5126,
			"count":36,
			"type":"VEC2"
		},
		{
			"bufferView":3,
			"componentType":5123,
			"count":60,
			"type":"SCALAR"
		},
		{
			"bufferView":4,
			"componentType":5126,
			"count":2736,
			"max":[
				0.7893276214599609,
				0.44471967220306396,
				0.7928699851036072
			],
			"min":[
				-0.7802209854125977,
				0.015565747395157814,
				-0.9098567962646484
			],
			"type":"VEC3"
		},
		{
			"bufferView":5,
			"componentType":5126,
			"count":2736,
			"type":"VEC3"
		},
		{
			"bufferView":6,
			"componentType":5126,
			"count":2736,
			"type":"VEC2"
		},
		{
			"bufferView":7,
			"componentType":5123,
			"count":4104,
			"type":"SCALAR"
		},
		{
			"bufferView":8,
			"componentType":5126,
			"count":2784,
			"max":[
				0.8396052122116089,
				0.4416953921318054,
				0.9602394700050354
			],
			"min":[
				-0.8470876216888428,
				0.015634775161743164,
				-0.8584296107292175
			],
			"type":"VEC3"
		},
		{
			"bufferView":9,
			"componentType":5126,
			"count":2784,
			"type":"VEC3"
		},
		{
			"bufferView":10,
			"componentType":5126,
			"count":2784,
			"type":"VEC2"
		},
		{
			"bufferView":11,
			"componentType":5123,
			"count":4176,
			"type":"SCALAR"
		},
		{
			"bufferView":12,
			"componentType":5126,
			"count":5616,
			"max":[
				0.8596422076225281,
				0.4451168179512024,
				0.9283809065818787
			],
			"min":[
				-0.8851456642150879,
				0.015556681901216507,
				-0.9306284189224243
			],
			"type":"VEC3"
		},
		{
			"bufferView":13,
			"componentType":5126,
			"count":5616,
			"type":"VEC3"
		},
		{
			"bufferView":14,
			"componentType":5126,
			"count":5616,
			"type":"VEC2"
		},
		{
			"bufferView":15,
			"componentType":5123,
			"count":8424,
			"type":"SCALAR"
		}
	],
	"bufferViews":[
		{
			"buffer":0,
			"byteLength":432,
			"byteOffset":0,
			"target":34962
		},
		{
			"buffer":0,
			"byteLength":432,
			"byteOffset":432,
			"target":34962
		},
		{
			"buffer":0,
			"byteLength":288,
			"byteOffset":864,
			"target":34962
		},
		{
			"buffer":0,
			"byteLength":120,
			"byteOffset":1152,
			"target":34963
		},
		{
			"buffer":0,
			"byteLength":32832,
			"byteOffset":1272,
			"target":34962
		},
		{
			"buffer":0,
			"byteLength":32832,
			"byteOffset":34104,
			"target":34962
		},
		{
			"buffer":0,
			"byteLength":21888,
			"byteOffset":66936,
			"target":34962
		},
		{
			"buffer":0,
			"byteLength":8208,
			"byteOffset":88824,
			"target":34963
		},
		{
			"buffer":0,
			"byteLength":33408,
			"byteOffset":97032,
			"target":34962
		},
		{
			"buffer":0,
			"byteLength":33408,
			"byteOffset":130440,
			"target":34962
		},
		{
			"buffer":0,
			"byteLength":22272,
			"byteOffset":163848,
			"target":34962
		},
		{
			"buffer":0,
			"byteLength":8352,
			"byteOffset":186120,
			"target":34963
		},
		{
			"buffer":0,
			"byteLength":67392,
			"byteOffset":194472,
			"target":34962
		},
		{
			"buffer":0,
			"byteLength":67392,
			"byteOffset":261864,
			"target":34962
		},
		{
			"buffer":0,
			"byteLength":44928,
			"byteOffset":329256,
			"target":34962
		},
		{
			"buffer":0,
			"byteLength":16848,
			"byteOffset":374184,
			"target":34963
		}
	],
	"samplers":[
		{
			"magFilter":9728,
			"minFilter":9984
		}
	],
	"buffers":[
		{
			"byteLength":391032,
			"uri":"hex_grass.bin"
		}
	]
}
