{
	"asset":{
		"generator":"Khronos glTF Blender I/O v4.1.63",
		"version":"2.0"
	},
	"scene":0,
	"scenes":[
		{
			"name":"Scene",
			"nodes":[
				0,
				1
			]
		}
	],
	"nodes":[
		{
			"mesh":0,
			"name":"grass"
		},
		{
			"mesh":1,
			"name":"Cube",
			"rotation":[
				0,
				0.2588190734386444,
				0,
				0.9659258127212524
			],
			"scale":[
				1.1853094100952148,
				1.1853092908859253,
				1.1853094100952148
			],
			"translation":[
				0,
				0.02514244243502617,
				0
			]
		}
	],
	"animations":[
		{
			"channels":[
				{
					"sampler":0,
					"target":{
						"node":1,
						"path":"translation"
					}
				},
				{
					"sampler":1,
					"target":{
						"node":1,
						"path":"rotation"
					}
				},
				{
					"sampler":2,
					"target":{
						"node":1,
						"path":"scale"
					}
				}
			],
			"name":"Action.001",
			"samplers":[
				{
					"input":16,
					"interpolation":"STEP",
					"output":17
				},
				{
					"input":16,
					"interpolation":"STEP",
					"output":18
				},
				{
					"input":16,
					"interpolation":"STEP",
					"output":19
				}
			]
		}
	],
	"materials":[
		{
			"doubleSided":true,
			"name":"grass base",
			"pbrMetallicRoughness":{
				"baseColorTexture":{
					"index":0
				},
				"metallicFactor":0,
				"roughnessFactor":0.5
			}
		},
		{
			"doubleSided":true,
			"name":"grass.001",
			"pbrMetallicRoughness":{
				"baseColorFactor":[
					0.04217253252863884,
					0.22893014550209045,
					0.10706626623868942,
					1
				],
				"metallicFactor":0,
				"roughnessFactor":0.5
			}
		},
		{
			"doubleSided":true,
			"name":"grass.002",
			"pbrMetallicRoughness":{
				"baseColorFactor":[
					0.00620546517893672,
					0.054181866347789764,
					0.004964110907167196,
					1
				],
				"metallicFactor":0,
				"roughnessFactor":0.5
			}
		},
		{
			"doubleSided":true,
			"name":"grass",
			"pbrMetallicRoughness":{
				"baseColorFactor":[
					0.021306250244379044,
					0.16437377035617828,
					0.04004855826497078,
					1
				],
				"metallicFactor":0,
				"roughnessFactor":0.5
			}
		}
	],
	"meshes":[
		{
			"name":"Cylinder",
			"primitives":[
				{
					"attributes":{
						"POSITION":0,
						"NORMAL":1,
						"TEXCOORD_0":2
					},
					"indices":3,
					"material":0
				}
			]
		},
		{
			"name":"Cube.001",
			"primitives":[
				{
					"attributes":{
						"POSITION":4,
						"NORMAL":5,
						"TEXCOORD_0":6
					},
					"indices":7,
					"material":1
				},
				{
					"attributes":{
						"POSITION":8,
						"NORMAL":9,
						"TEXCOORD_0":10
					},
					"indices":11,
					"material":2
				},
				{
					"attributes":{
						"POSITION":12,
						"NORMAL":13,
						"TEXCOORD_0":14
					},
					"indices":15,
					"material":3
				}
			]
		}
	],
	"textures":[
		{
			"sampler":0,
			"source":0
		}
	],
	"images":[
		{
			"mimeType":"image/png",
			"name":"grass6",
			"uri":"hex_grass/grass6.png"
		}
	],
	"accessors":[
		{
			"bufferView":0,
			"componentType":5126,
			"count":36,
			"max":[
				0.8660253882408142,
				0.125,
				1
			],
			"min":[
				-0.8660253882408142,
				-0.125,
				-1
			],
			"type":"VEC3"
		},
		{
			"bufferView":1,
			"componentType":5126,
			"count":36,
			"type":"VEC3"
		},
		{
			"bufferView":2,
			"componentType":5126,
			"count":36,
			"type":"VEC2"
		},
		{
			"bufferView":3,
			"componentType":5123,
			"count":60,
			"type":"SCALAR"
		},
		{
			"bufferView":4,
			"componentType":5126,
			"count":2784,
			"max":[
				0.7455159425735474,
				0.3541503846645355,
				0.6666527390480042
			],
			"min":[
				-0.7954733371734619,
				-0.008083352819085121,
				-0.6989001035690308
			],
			"type":"VEC3"
		},
		{
			"bufferView":5,
			"componentType":5126,
			"count":2784,
			"type":"VEC3"
		},
		{
			"bufferView":6,
			"componentType":5126,
			"count":2784,
			"type":"VEC2"
		},
		{
			"bufferView":7,
			"componentType":5123,
			"count":4176,
			"type":"SCALAR"
		},
		{
			"bufferView":8,
			"componentType":5126,
			"count":2736,
			"max":[
				0.7755616903305054,
				0.3544711172580719,
				0.729102373123169
			],
			"min":[
				-0.7027915120124817,
				-0.008090673014521599,
				-0.7083904147148132
			],
			"type":"VEC3"
		},
		{
			"bufferView":9,
			"componentType":5126,
			"count":2736,
			"type":"VEC3"
		},
		{
			"bufferView":10,
			"componentType":5126,
			"count":2736,
			"type":"VEC2"
		},
		{
			"bufferView":11,
			"componentType":5123,
			"count":4104,
			"type":"SCALAR"
		},
		{
			"bufferView":12,
			"componentType":5126,
			"count":5640,
			"max":[
				0.8185434341430664,
				0.35370737314224243,
				0.6961432099342346
			],
			"min":[
				-0.7769008874893188,
				-0.008073240518569946,
				-0.7335455417633057
			],
			"type":"VEC3"
		},
		{
			"bufferView":13,
			"componentType":5126,
			"count":5640,
			"type":"VEC3"
		},
		{
			"bufferView":14,
			"componentType":5126,
			"count":5640,
			"type":"VEC2"
		},
		{
			"bufferView":15,
			"componentType":5123,
			"count":8460,
			"type":"SCALAR"
		},
		{
			"bufferView":16,
			"componentType":5126,
			"count":2,
			"max":[
				5.416666666666667
			],
			"min":[
				0.041666666666666664
			],
			"type":"SCALAR"
		},
		{
			"bufferView":17,
			"componentType":5126,
			"count":2,
			"type":"VEC3"
		},
		{
			"bufferView":18,
			"componentType":5126,
			"count":2,
			"type":"VEC4"
		},
		{
			"bufferView":19,
			"componentType":5126,
			"count":2,
			"type":"VEC3"
		}
	],
	"bufferViews":[
		{
			"buffer":0,
			"byteLength":432,
			"byteOffset":0,
			"target":34962
		},
		{
			"buffer":0,
			"byteLength":432,
			"byteOffset":432,
			"target":34962
		},
		{
			"buffer":0,
			"byteLength":288,
			"byteOffset":864,
			"target":34962
		},
		{
			"buffer":0,
			"byteLength":120,
			"byteOffset":1152,
			"target":34963
		},
		{
			"buffer":0,
			"byteLength":33408,
			"byteOffset":1272,
			"target":34962
		},
		{
			"buffer":0,
			"byteLength":33408,
			"byteOffset":34680,
			"target":34962
		},
		{
			"buffer":0,
			"byteLength":22272,
			"byteOffset":68088,
			"target":34962
		},
		{
			"buffer":0,
			"byteLength":8352,
			"byteOffset":90360,
			"target":34963
		},
		{
			"buffer":0,
			"byteLength":32832,
			"byteOffset":98712,
			"target":34962
		},
		{
			"buffer":0,
			"byteLength":32832,
			"byteOffset":131544,
			"target":34962
		},
		{
			"buffer":0,
			"byteLength":21888,
			"byteOffset":164376,
			"target":34962
		},
		{
			"buffer":0,
			"byteLength":8208,
			"byteOffset":186264,
			"target":34963
		},
		{
			"buffer":0,
			"byteLength":67680,
			"byteOffset":194472,
			"target":34962
		},
		{
			"buffer":0,
			"byteLength":67680,
			"byteOffset":262152,
			"target":34962
		},
		{
			"buffer":0,
			"byteLength":45120,
			"byteOffset":329832,
			"target":34962
		},
		{
			"buffer":0,
			"byteLength":16920,
			"byteOffset":374952,
			"target":34963
		},
		{
			"buffer":0,
			"byteLength":8,
			"byteOffset":391872
		},
		{
			"buffer":0,
			"byteLength":24,
			"byteOffset":391880
		},
		{
			"buffer":0,
			"byteLength":32,
			"byteOffset":391904
		},
		{
			"buffer":0,
			"byteLength":24,
			"byteOffset":391936
		}
	],
	"samplers":[
		{
			"magFilter":9728,
			"minFilter":9984
		}
	],
	"buffers":[
		{
			"byteLength":391960,
			"uri":"hex_grass_2.bin"
		}
	]
}
