{
	"asset":{
		"generator":"Khronos glTF Blender I/O v4.1.63",
		"version":"2.0"
	},
	"scene":0,
	"scenes":[
		{
			"name":"Scene",
			"nodes":[
				0,
				1
			]
		}
	],
	"nodes":[
		{
			"mesh":0,
			"name":"grass"
		},
		{
			"mesh":1,
			"name":"Cube.001",
			"rotation":[
				0,
				0.2588190734386444,
				0,
				0.9659258127212524
			],
			"scale":[
				0.9505053758621216,
				0.9505051970481873,
				0.9505053758621216
			],
			"translation":[
				0,
				0.02514244243502617,
				0
			]
		}
	],
	"animations":[
		{
			"channels":[
				{
					"sampler":0,
					"target":{
						"node":1,
						"path":"translation"
					}
				},
				{
					"sampler":1,
					"target":{
						"node":1,
						"path":"rotation"
					}
				},
				{
					"sampler":2,
					"target":{
						"node":1,
						"path":"scale"
					}
				}
			],
			"name":"Action.002",
			"samplers":[
				{
					"input":16,
					"interpolation":"STEP",
					"output":17
				},
				{
					"input":16,
					"interpolation":"STEP",
					"output":18
				},
				{
					"input":19,
					"interpolation":"LINEAR",
					"output":20
				}
			]
		}
	],
	"materials":[
		{
			"doubleSided":true,
			"name":"grass base",
			"pbrMetallicRoughness":{
				"baseColorTexture":{
					"index":0
				},
				"metallicFactor":0,
				"roughnessFactor":0.5
			}
		},
		{
			"doubleSided":true,
			"name":"grass.001",
			"pbrMetallicRoughness":{
				"baseColorFactor":[
					0.04217253252863884,
					0.22893014550209045,
					0.10706626623868942,
					1
				],
				"metallicFactor":0,
				"roughnessFactor":0.5
			}
		},
		{
			"doubleSided":true,
			"name":"grass.002",
			"pbrMetallicRoughness":{
				"baseColorFactor":[
					0.00620546517893672,
					0.054181866347789764,
					0.004964110907167196,
					1
				],
				"metallicFactor":0,
				"roughnessFactor":0.5
			}
		},
		{
			"doubleSided":true,
			"name":"grass",
			"pbrMetallicRoughness":{
				"baseColorFactor":[
					0.021306250244379044,
					0.16437377035617828,
					0.04004855826497078,
					1
				],
				"metallicFactor":0,
				"roughnessFactor":0.5
			}
		}
	],
	"meshes":[
		{
			"name":"Cylinder",
			"primitives":[
				{
					"attributes":{
						"POSITION":0,
						"NORMAL":1,
						"TEXCOORD_0":2
					},
					"indices":3,
					"material":0
				}
			]
		},
		{
			"name":"Cube.014",
			"primitives":[
				{
					"attributes":{
						"POSITION":4,
						"NORMAL":5,
						"TEXCOORD_0":6
					},
					"indices":7,
					"material":1
				},
				{
					"attributes":{
						"POSITION":8,
						"NORMAL":9,
						"TEXCOORD_0":10
					},
					"indices":11,
					"material":2
				},
				{
					"attributes":{
						"POSITION":12,
						"NORMAL":13,
						"TEXCOORD_0":14
					},
					"indices":15,
					"material":3
				}
			]
		}
	],
	"textures":[
		{
			"sampler":0,
			"source":0
		}
	],
	"images":[
		{
			"mimeType":"image/png",
			"name":"grass6",
			"uri":"hex_grass/grass6.png"
		}
	],
	"accessors":[
		{
			"bufferView":0,
			"componentType":5126,
			"count":36,
			"max":[
				0.8660253882408142,
				0.125,
				1
			],
			"min":[
				-0.8660253882408142,
				-0.125,
				-1
			],
			"type":"VEC3"
		},
		{
			"bufferView":1,
			"componentType":5126,
			"count":36,
			"type":"VEC3"
		},
		{
			"bufferView":2,
			"componentType":5126,
			"count":36,
			"type":"VEC2"
		},
		{
			"bufferView":3,
			"componentType":5123,
			"count":60,
			"type":"SCALAR"
		},
		{
			"bufferView":4,
			"componentType":5126,
			"count":1056,
			"max":[
				0.9205204248428345,
				0.40302547812461853,
				0.9284282326698303
			],
			"min":[
				-1.003731369972229,
				-0.009198909625411034,
				-0.9546938538551331
			],
			"type":"VEC3"
		},
		{
			"bufferView":5,
			"componentType":5126,
			"count":1056,
			"type":"VEC3"
		},
		{
			"bufferView":6,
			"componentType":5126,
			"count":1056,
			"type":"VEC2"
		},
		{
			"bufferView":7,
			"componentType":5123,
			"count":1584,
			"type":"SCALAR"
		},
		{
			"bufferView":8,
			"componentType":5126,
			"count":1104,
			"max":[
				1.0340580940246582,
				0.4400067925453186,
				0.9075526595115662
			],
			"min":[
				-1.0527958869934082,
				-0.010042994283139706,
				-0.9554823040962219
			],
			"type":"VEC3"
		},
		{
			"bufferView":9,
			"componentType":5126,
			"count":1104,
			"type":"VEC3"
		},
		{
			"bufferView":10,
			"componentType":5126,
			"count":1104,
			"type":"VEC2"
		},
		{
			"bufferView":11,
			"componentType":5123,
			"count":1656,
			"type":"SCALAR"
		},
		{
			"bufferView":12,
			"componentType":5126,
			"count":2160,
			"max":[
				0.9922345280647278,
				0.44070684909820557,
				0.9256611466407776
			],
			"min":[
				-1.044593095779419,
				-0.010058972984552383,
				-0.9553471803665161
			],
			"type":"VEC3"
		},
		{
			"bufferView":13,
			"componentType":5126,
			"count":2160,
			"type":"VEC3"
		},
		{
			"bufferView":14,
			"componentType":5126,
			"count":2160,
			"type":"VEC2"
		},
		{
			"bufferView":15,
			"componentType":5123,
			"count":3240,
			"type":"SCALAR"
		},
		{
			"bufferView":16,
			"componentType":5126,
			"count":2,
			"max":[
				5.416666666666667
			],
			"min":[
				0
			],
			"type":"SCALAR"
		},
		{
			"bufferView":17,
			"componentType":5126,
			"count":2,
			"type":"VEC3"
		},
		{
			"bufferView":18,
			"componentType":5126,
			"count":2,
			"type":"VEC4"
		},
		{
			"bufferView":19,
			"componentType":5126,
			"count":131,
			"max":[
				5.416666666666667
			],
			"min":[
				0
			],
			"type":"SCALAR"
		},
		{
			"bufferView":20,
			"componentType":5126,
			"count":131,
			"type":"VEC3"
		}
	],
	"bufferViews":[
		{
			"buffer":0,
			"byteLength":432,
			"byteOffset":0,
			"target":34962
		},
		{
			"buffer":0,
			"byteLength":432,
			"byteOffset":432,
			"target":34962
		},
		{
			"buffer":0,
			"byteLength":288,
			"byteOffset":864,
			"target":34962
		},
		{
			"buffer":0,
			"byteLength":120,
			"byteOffset":1152,
			"target":34963
		},
		{
			"buffer":0,
			"byteLength":12672,
			"byteOffset":1272,
			"target":34962
		},
		{
			"buffer":0,
			"byteLength":12672,
			"byteOffset":13944,
			"target":34962
		},
		{
			"buffer":0,
			"byteLength":8448,
			"byteOffset":26616,
			"target":34962
		},
		{
			"buffer":0,
			"byteLength":3168,
			"byteOffset":35064,
			"target":34963
		},
		{
			"buffer":0,
			"byteLength":13248,
			"byteOffset":38232,
			"target":34962
		},
		{
			"buffer":0,
			"byteLength":13248,
			"byteOffset":51480,
			"target":34962
		},
		{
			"buffer":0,
			"byteLength":8832,
			"byteOffset":64728,
			"target":34962
		},
		{
			"buffer":0,
			"byteLength":3312,
			"byteOffset":73560,
			"target":34963
		},
		{
			"buffer":0,
			"byteLength":25920,
			"byteOffset":76872,
			"target":34962
		},
		{
			"buffer":0,
			"byteLength":25920,
			"byteOffset":102792,
			"target":34962
		},
		{
			"buffer":0,
			"byteLength":17280,
			"byteOffset":128712,
			"target":34962
		},
		{
			"buffer":0,
			"byteLength":6480,
			"byteOffset":145992,
			"target":34963
		},
		{
			"buffer":0,
			"byteLength":8,
			"byteOffset":152472
		},
		{
			"buffer":0,
			"byteLength":24,
			"byteOffset":152480
		},
		{
			"buffer":0,
			"byteLength":32,
			"byteOffset":152504
		},
		{
			"buffer":0,
			"byteLength":524,
			"byteOffset":152536
		},
		{
			"buffer":0,
			"byteLength":1572,
			"byteOffset":153060
		}
	],
	"samplers":[
		{
			"magFilter":9728,
			"minFilter":9984
		}
	],
	"buffers":[
		{
			"byteLength":154632,
			"uri":"hex_grass_empty.bin"
		}
	]
}
