{
	"asset":{
		"generator":"Khronos glTF Blender I/O v4.1.63",
		"version":"2.0"
	},
	"scene":0,
	"scenes":[
		{
			"name":"Scene",
			"nodes":[
				32
			]
		}
	],
	"nodes":[
		{
			"name":"handslot.l",
			"rotation":[
				1.0644983206020697e-07,
				-5.817130599439224e-08,
				-0.7071067690849304,
				0.7071067690849304
			],
			"translation":[
				5.13851183825409e-10,
				0.0961250588297844,
				-0.05750000476837158
			]
		},
		{
			"children":[
				0
			],
			"name":"hand.l",
			"rotation":[
				-6.352649526211729e-14,
				-1.7731265945526015e-14,
				-3.947048850955204e-14,
				1
			],
			"translation":[
				-1.687538997430238e-14,
				0.0738258883357048,
				-1.192094174484737e-07
			]
		},
		{
			"children":[
				1
			],
			"name":"wrist.l",
			"rotation":[
				-2.35286705674298e-07,
				4.607970005565676e-09,
				0.026658091694116592,
				0.9996446371078491
			],
			"scale":[
				0.9999999403953552,
				0.9999999403953552,
				1
			],
			"translation":[
				5.125531998828592e-09,
				0.26004382967948914,
				-2.1610051703646604e-07
			]
		},
		{
			"children":[
				2
			],
			"name":"lowerarm.l",
			"rotation":[
				2.4548461396989296e-07,
				-8.071528156960994e-08,
				-0.05529647320508957,
				0.9984699487686157
			],
			"translation":[
				-5.189804141991772e-10,
				0.24189728498458862,
				4.479902226961485e-09
			]
		},
		{
			"children":[
				3
			],
			"name":"upperarm.l",
			"rotation":[
				-0.5141242742538452,
				-0.48546481132507324,
				-0.4854649603366852,
				0.5141244530677795
			],
			"translation":[
				0.2120073288679123,
				0.13413214683532715,
				8.9213060050497e-08
			]
		},
		{
			"name":"handslot.r",
			"rotation":[
				1.0656656002083764e-07,
				5.805457803376157e-08,
				0.7071067690849304,
				0.7071067690849304
			],
			"translation":[
				-5.13851183825409e-10,
				0.0961250588297844,
				-0.05750000476837158
			]
		},
		{
			"children":[
				5
			],
			"name":"hand.r",
			"rotation":[
				-1.3271095496259889e-17,
				1.0624607002019705e-14,
				3.945127780230831e-14,
				1
			],
			"translation":[
				1.687538997430238e-14,
				0.0738258883357048,
				-1.1920928244535389e-07
			]
		},
		{
			"children":[
				6
			],
			"name":"wrist.r",
			"rotation":[
				-2.3529011627942964e-07,
				-4.599238323521604e-09,
				-0.026658091694116592,
				0.9996446371078491
			],
			"scale":[
				0.9999999403953552,
				0.9999999403953552,
				1
			],
			"translation":[
				-5.125517787973877e-09,
				0.26004382967948914,
				-2.1610563294416352e-07
			]
		},
		{
			"children":[
				7
			],
			"name":"lowerarm.r",
			"rotation":[
				2.435313888327073e-07,
				4.5312415153375696e-08,
				0.05529647320508957,
				0.9984699487686157
			],
			"translation":[
				1.2367422641546e-09,
				0.24189728498458862,
				3.620116206803914e-09
			]
		},
		{
			"children":[
				8
			],
			"name":"upperarm.r",
			"rotation":[
				-0.51412433385849,
				0.48546478152275085,
				0.4854649007320404,
				0.5141244530677795
			],
			"translation":[
				-0.2120073288679123,
				0.13413214683532715,
				7.469969176554514e-08
			]
		},
		{
			"name":"head",
			"rotation":[
				-7.480251295222291e-15,
				8.881784197001252e-15,
				-1.324867530293936e-22,
				1
			],
			"translation":[
				-4.49357638372469e-23,
				0.26879656314849854,
				0
			]
		},
		{
			"children":[
				4,
				9,
				10
			],
			"name":"chest",
			"rotation":[
				5.582673029641636e-15,
				-8.881784197001252e-15,
				1.1222096686136375e-22,
				1
			],
			"translation":[
				-1.0504770949978253e-22,
				0.3749878406524658,
				3.552713678800501e-15
			]
		},
		{
			"children":[
				11
			],
			"name":"spine",
			"rotation":[
				-2.07245457028841e-15,
				1.7763568394002505e-15,
				-1.460642388104923e-23,
				1
			],
			"translation":[
				-1.9159075849155387e-23,
				0.19197750091552734,
				8.881784197001252e-16
			]
		},
		{
			"name":"toes.r",
			"rotation":[
				4.8837026866976885e-08,
				0.9203547835350037,
				-0.3910844922065735,
				4.0229977571470954e-08
			],
			"scale":[
				1,
				0.9999998807907104,
				0.9999999403953552
			],
			"translation":[
				-1.6149082071592602e-10,
				0.16565002501010895,
				2.8460398482366145e-09
			]
		},
		{
			"children":[
				13
			],
			"name":"foot.r",
			"rotation":[
				-0.455239862203598,
				7.505242649585853e-08,
				-3.837386941540899e-08,
				0.8903688192367554
			],
			"scale":[
				1,
				1,
				1.0000001192092896
			],
			"translation":[
				1.4901158529312397e-08,
				0.1494370698928833,
				3.725589170500143e-09
			]
		},
		{
			"children":[
				14
			],
			"name":"lowerleg.r",
			"rotation":[
				0.10622712969779968,
				-7.671461332847684e-08,
				7.478843855324158e-08,
				0.9943419098854065
			],
			"translation":[
				1.188816689534633e-08,
				0.2270774096250534,
				-2.320748393458416e-08
			]
		},
		{
			"children":[
				15
			],
			"name":"upperleg.r",
			"rotation":[
				0.9998490810394287,
				6.737205637818988e-08,
				1.0017320306587862e-07,
				0.017373913899064064
			],
			"scale":[
				1,
				1,
				1.000000238418579
			],
			"translation":[
				-0.17094504833221436,
				0.11358726024627686,
				5.324676255469285e-09
			]
		},
		{
			"name":"toes.l",
			"rotation":[
				-1.0215062573593059e-08,
				0.9203547835350037,
				-0.3910844922065735,
				1.7919967376656132e-07
			],
			"scale":[
				1,
				0.9999998807907104,
				0.9999999403953552
			],
			"translation":[
				-1.6149015458211124e-10,
				0.16565002501010895,
				8.797638173518862e-10
			]
		},
		{
			"children":[
				17
			],
			"name":"foot.l",
			"rotation":[
				-0.455239862203598,
				7.505248333927739e-08,
				-3.8373826782844844e-08,
				0.8903688192367554
			],
			"scale":[
				1,
				1,
				1.0000001192092896
			],
			"translation":[
				-1.4901156752955558e-08,
				0.1494370698928833,
				3.725659780684509e-09
			]
		},
		{
			"children":[
				18
			],
			"name":"lowerleg.l",
			"rotation":[
				0.10622712969779968,
				7.684135994168173e-08,
				-7.360600307038112e-08,
				0.9943419098854065
			],
			"translation":[
				-1.1194018156857055e-08,
				0.2270774096250534,
				-2.3207560317928255e-08
			]
		},
		{
			"children":[
				19
			],
			"name":"upperleg.l",
			"rotation":[
				0.9998490810394287,
				-6.677772290686335e-08,
				-6.597082347070682e-08,
				0.017373913899064064
			],
			"scale":[
				1,
				1,
				1.000000238418579
			],
			"translation":[
				0.17094504833221436,
				0.11358726024627686,
				1.702706420303457e-08
			]
		},
		{
			"children":[
				12,
				16,
				20
			],
			"name":"hips",
			"rotation":[
				-2.347496756173722e-16,
				-1.0331726940648878e-07,
				-1.4136407143083162e-24,
				1
			],
			"translation":[
				-2.117582241918006e-22,
				0.4056633710861206,
				8.881784197001252e-16
			]
		},
		{
			"children":[
				21
			],
			"name":"root",
			"rotation":[
				-8.557132780140364e-09,
				1.2043153674312634e-07,
				-2.0610973407733874e-15,
				1
			]
		},
		{
			"mesh":0,
			"name":"Knight_ArmLeft",
			"skin":0
		},
		{
			"mesh":1,
			"name":"Knight_ArmRight",
			"skin":0
		},
		{
			"mesh":2,
			"name":"Knight_Body",
			"skin":0
		},
		{
			"mesh":3,
			"name":"Knight_Cape",
			"skin":0
		},
		{
			"mesh":4,
			"name":"Knight_Head",
			"skin":0
		},
		{
			"mesh":5,
			"name":"Knight_Helmet",
			"skin":0
		},
		{
			"mesh":6,
			"name":"Knight_HelmetVisor",
			"skin":0
		},
		{
			"mesh":7,
			"name":"Knight_LegLeft",
			"skin":0
		},
		{
			"mesh":8,
			"name":"Knight_LegRight",
			"skin":0
		},
		{
			"children":[
				23,
				24,
				25,
				26,
				27,
				28,
				29,
				30,
				31,
				22
			],
			"name":"Rig_Medium"
		}
	],
	"materials":[
		{
			"doubleSided":true,
			"name":"knight",
			"pbrMetallicRoughness":{
				"baseColorTexture":{
					"index":0
				},
				"metallicFactor":0,
				"roughnessFactor":0.5
			}
		}
	],
	"meshes":[
		{
			"name":"Knight_ArmLeft",
			"primitives":[
				{
					"attributes":{
						"POSITION":0,
						"NORMAL":1,
						"TEXCOORD_0":2,
						"JOINTS_0":3,
						"WEIGHTS_0":4
					},
					"indices":5,
					"material":0
				}
			]
		},
		{
			"name":"Knight_ArmRight",
			"primitives":[
				{
					"attributes":{
						"POSITION":7,
						"NORMAL":8,
						"TEXCOORD_0":9,
						"JOINTS_0":10,
						"WEIGHTS_0":11
					},
					"indices":12,
					"material":0
				}
			]
		},
		{
			"name":"Knight_Body",
			"primitives":[
				{
					"attributes":{
						"POSITION":13,
						"NORMAL":14,
						"TEXCOORD_0":15,
						"JOINTS_0":16,
						"WEIGHTS_0":17
					},
					"indices":18,
					"material":0
				}
			]
		},
		{
			"name":"Knight_Cape",
			"primitives":[
				{
					"attributes":{
						"POSITION":19,
						"NORMAL":20,
						"TEXCOORD_0":21,
						"JOINTS_0":22,
						"WEIGHTS_0":23
					},
					"indices":24,
					"material":0
				}
			]
		},
		{
			"name":"Knight_Head",
			"primitives":[
				{
					"attributes":{
						"POSITION":25,
						"NORMAL":26,
						"TEXCOORD_0":27,
						"JOINTS_0":28,
						"WEIGHTS_0":29
					},
					"indices":30,
					"material":0
				}
			]
		},
		{
			"name":"Knight_Helmet",
			"primitives":[
				{
					"attributes":{
						"POSITION":31,
						"NORMAL":32,
						"TEXCOORD_0":33,
						"JOINTS_0":34,
						"WEIGHTS_0":35
					},
					"indices":36,
					"material":0
				}
			]
		},
		{
			"name":"Knight_HelmetVisor",
			"primitives":[
				{
					"attributes":{
						"POSITION":37,
						"NORMAL":38,
						"TEXCOORD_0":39,
						"JOINTS_0":40,
						"WEIGHTS_0":41
					},
					"indices":42,
					"material":0
				}
			]
		},
		{
			"name":"Knight_LegLeft",
			"primitives":[
				{
					"attributes":{
						"POSITION":43,
						"NORMAL":44,
						"TEXCOORD_0":45,
						"JOINTS_0":46,
						"WEIGHTS_0":47
					},
					"indices":48,
					"material":0
				}
			]
		},
		{
			"name":"Knight_LegRight",
			"primitives":[
				{
					"attributes":{
						"POSITION":49,
						"NORMAL":50,
						"TEXCOORD_0":51,
						"JOINTS_0":52,
						"WEIGHTS_0":53
					},
					"indices":54,
					"material":0
				}
			]
		}
	],
	"textures":[
		{
			"sampler":0,
			"source":0
		}
	],
	"images":[
		{
			"mimeType":"image/png",
			"name":"knight_texture",
			"uri":"knight_texture.png"
		}
	],
	"skins":[
		{
			"inverseBindMatrices":6,
			"joints":[
				22,
				21,
				12,
				11,
				4,
				3,
				2,
				1,
				0,
				9,
				8,
				7,
				6,
				5,
				10,
				16,
				15,
				14,
				13,
				20,
				19,
				18,
				17
			],
			"name":"Rig_Medium"
		}
	],
	"accessors":[
		{
			"bufferView":0,
			"componentType":5126,
			"count":514,
			"max":[
				0.9712533950805664,
				1.271857500076294,
				0.14215174317359924
			],
			"min":[
				0.0520821176469326,
				0.975304901599884,
				-0.16858607530593872
			],
			"type":"VEC3"
		},
		{
			"bufferView":1,
			"componentType":5126,
			"count":514,
			"type":"VEC3"
		},
		{
			"bufferView":2,
			"componentType":5126,
			"count":514,
			"type":"VEC2"
		},
		{
			"bufferView":3,
			"componentType":5121,
			"count":514,
			"type":"VEC4"
		},
		{
			"bufferView":4,
			"componentType":5126,
			"count":514,
			"type":"VEC4"
		},
		{
			"bufferView":5,
			"componentType":5123,
			"count":1866,
			"type":"SCALAR"
		},
		{
			"bufferView":6,
			"componentType":5126,
			"count":23,
			"type":"MAT4"
		},
		{
			"bufferView":7,
			"componentType":5126,
			"count":514,
			"max":[
				-0.0520821176469326,
				1.271857500076294,
				0.14215174317359924
			],
			"min":[
				-0.9712533950805664,
				0.975304901599884,
				-0.16858607530593872
			],
			"type":"VEC3"
		},
		{
			"bufferView":8,
			"componentType":5126,
			"count":514,
			"type":"VEC3"
		},
		{
			"bufferView":9,
			"componentType":5126,
			"count":514,
			"type":"VEC2"
		},
		{
			"bufferView":10,
			"componentType":5121,
			"count":514,
			"type":"VEC4"
		},
		{
			"bufferView":11,
			"componentType":5126,
			"count":514,
			"type":"VEC4"
		},
		{
			"bufferView":12,
			"componentType":5123,
			"count":1866,
			"type":"SCALAR"
		},
		{
			"bufferView":13,
			"componentType":5126,
			"count":1367,
			"max":[
				0.3949020802974701,
				1.300826907157898,
				0.36555495858192444
			],
			"min":[
				-0.394856333732605,
				0.37639951705932617,
				-0.4132102429866791
			],
			"type":"VEC3"
		},
		{
			"bufferView":14,
			"componentType":5126,
			"count":1367,
			"type":"VEC3"
		},
		{
			"bufferView":15,
			"componentType":5126,
			"count":1367,
			"type":"VEC2"
		},
		{
			"bufferView":16,
			"componentType":5121,
			"count":1367,
			"type":"VEC4"
		},
		{
			"bufferView":17,
			"componentType":5126,
			"count":1367,
			"type":"VEC4"
		},
		{
			"bufferView":18,
			"componentType":5123,
			"count":3864,
			"type":"SCALAR"
		},
		{
			"bufferView":19,
			"componentType":5126,
			"count":56,
			"max":[
				0.4853890538215637,
				1.23599112033844,
				-0.043505046516656876
			],
			"min":[
				-0.4853677749633789,
				0.09404635429382324,
				-0.3860939145088196
			],
			"type":"VEC3"
		},
		{
			"bufferView":20,
			"componentType":5126,
			"count":56,
			"type":"VEC3"
		},
		{
			"bufferView":21,
			"componentType":5126,
			"count":56,
			"type":"VEC2"
		},
		{
			"bufferView":22,
			"componentType":5121,
			"count":56,
			"type":"VEC4"
		},
		{
			"bufferView":23,
			"componentType":5126,
			"count":56,
			"type":"VEC4"
		},
		{
			"bufferView":24,
			"componentType":5123,
			"count":252,
			"type":"SCALAR"
		},
		{
			"bufferView":25,
			"componentType":5126,
			"count":771,
			"max":[
				0.5431873798370361,
				2.2841858863830566,
				0.5317936539649963
			],
			"min":[
				-0.5431593060493469,
				1.2158912420272827,
				-0.4820896089076996
			],
			"type":"VEC3"
		},
		{
			"bufferView":26,
			"componentType":5126,
			"count":771,
			"type":"VEC3"
		},
		{
			"bufferView":27,
			"componentType":5126,
			"count":771,
			"type":"VEC2"
		},
		{
			"bufferView":28,
			"componentType":5121,
			"count":771,
			"type":"VEC4"
		},
		{
			"bufferView":29,
			"componentType":5126,
			"count":771,
			"type":"VEC4"
		},
		{
			"bufferView":30,
			"componentType":5123,
			"count":3246,
			"type":"SCALAR"
		},
		{
			"bufferView":31,
			"componentType":5126,
			"count":503,
			"max":[
				0.5694972276687622,
				2.397871971130371,
				0.5976923108100891
			],
			"min":[
				-0.5694972276687622,
				1.0984070301055908,
				-0.5421847701072693
			],
			"type":"VEC3"
		},
		{
			"bufferView":32,
			"componentType":5126,
			"count":503,
			"type":"VEC3"
		},
		{
			"bufferView":33,
			"componentType":5126,
			"count":503,
			"type":"VEC2"
		},
		{
			"bufferView":34,
			"componentType":5121,
			"count":503,
			"type":"VEC4"
		},
		{
			"bufferView":35,
			"componentType":5126,
			"count":503,
			"type":"VEC4"
		},
		{
			"bufferView":36,
			"componentType":5123,
			"count":1254,
			"type":"SCALAR"
		},
		{
			"bufferView":37,
			"componentType":5126,
			"count":493,
			"max":[
				0.6085173487663269,
				2.5431041717529297,
				0.7655929327011108
			],
			"min":[
				-0.6087942719459534,
				1.6522401571273804,
				-0.0850570872426033
			],
			"type":"VEC3"
		},
		{
			"bufferView":38,
			"componentType":5126,
			"count":493,
			"type":"VEC3"
		},
		{
			"bufferView":39,
			"componentType":5126,
			"count":493,
			"type":"VEC2"
		},
		{
			"bufferView":40,
			"componentType":5121,
			"count":493,
			"type":"VEC4"
		},
		{
			"bufferView":41,
			"componentType":5126,
			"count":493,
			"type":"VEC4"
		},
		{
			"bufferView":42,
			"componentType":5123,
			"count":1284,
			"type":"SCALAR"
		},
		{
			"bufferView":43,
			"componentType":5126,
			"count":587,
			"max":[
				0.291690468788147,
				0.5291943550109863,
				0.29342007637023926
			],
			"min":[
				0.04565125331282616,
				-7.026109472008102e-08,
				-0.13297583162784576
			],
			"type":"VEC3"
		},
		{
			"bufferView":44,
			"componentType":5126,
			"count":587,
			"type":"VEC3"
		},
		{
			"bufferView":45,
			"componentType":5126,
			"count":587,
			"type":"VEC2"
		},
		{
			"bufferView":46,
			"componentType":5121,
			"count":587,
			"type":"VEC4"
		},
		{
			"bufferView":47,
			"componentType":5126,
			"count":587,
			"type":"VEC4"
		},
		{
			"bufferView":48,
			"componentType":5123,
			"count":1884,
			"type":"SCALAR"
		},
		{
			"bufferView":49,
			"componentType":5126,
			"count":587,
			"max":[
				-0.04564467817544937,
				0.5291943550109863,
				0.29342007637023926
			],
			"min":[
				-0.2916839122772217,
				-7.026111603636309e-08,
				-0.13297583162784576
			],
			"type":"VEC3"
		},
		{
			"bufferView":50,
			"componentType":5126,
			"count":587,
			"type":"VEC3"
		},
		{
			"bufferView":51,
			"componentType":5126,
			"count":587,
			"type":"VEC2"
		},
		{
			"bufferView":52,
			"componentType":5121,
			"count":587,
			"type":"VEC4"
		},
		{
			"bufferView":53,
			"componentType":5126,
			"count":587,
			"type":"VEC4"
		},
		{
			"bufferView":54,
			"componentType":5123,
			"count":1884,
			"type":"SCALAR"
		}
	],
	"bufferViews":[
		{
			"buffer":0,
			"byteLength":6168,
			"byteOffset":0,
			"target":34962
		},
		{
			"buffer":0,
			"byteLength":6168,
			"byteOffset":6168,
			"target":34962
		},
		{
			"buffer":0,
			"byteLength":4112,
			"byteOffset":12336,
			"target":34962
		},
		{
			"buffer":0,
			"byteLength":2056,
			"byteOffset":16448,
			"target":34962
		},
		{
			"buffer":0,
			"byteLength":8224,
			"byteOffset":18504,
			"target":34962
		},
		{
			"buffer":0,
			"byteLength":3732,
			"byteOffset":26728,
			"target":34963
		},
		{
			"buffer":0,
			"byteLength":1472,
			"byteOffset":30460
		},
		{
			"buffer":0,
			"byteLength":6168,
			"byteOffset":31932,
			"target":34962
		},
		{
			"buffer":0,
			"byteLength":6168,
			"byteOffset":38100,
			"target":34962
		},
		{
			"buffer":0,
			"byteLength":4112,
			"byteOffset":44268,
			"target":34962
		},
		{
			"buffer":0,
			"byteLength":2056,
			"byteOffset":48380,
			"target":34962
		},
		{
			"buffer":0,
			"byteLength":8224,
			"byteOffset":50436,
			"target":34962
		},
		{
			"buffer":0,
			"byteLength":3732,
			"byteOffset":58660,
			"target":34963
		},
		{
			"buffer":0,
			"byteLength":16404,
			"byteOffset":62392,
			"target":34962
		},
		{
			"buffer":0,
			"byteLength":16404,
			"byteOffset":78796,
			"target":34962
		},
		{
			"buffer":0,
			"byteLength":10936,
			"byteOffset":95200,
			"target":34962
		},
		{
			"buffer":0,
			"byteLength":5468,
			"byteOffset":106136,
			"target":34962
		},
		{
			"buffer":0,
			"byteLength":21872,
			"byteOffset":111604,
			"target":34962
		},
		{
			"buffer":0,
			"byteLength":7728,
			"byteOffset":133476,
			"target":34963
		},
		{
			"buffer":0,
			"byteLength":672,
			"byteOffset":141204,
			"target":34962
		},
		{
			"buffer":0,
			"byteLength":672,
			"byteOffset":141876,
			"target":34962
		},
		{
			"buffer":0,
			"byteLength":448,
			"byteOffset":142548,
			"target":34962
		},
		{
			"buffer":0,
			"byteLength":224,
			"byteOffset":142996,
			"target":34962
		},
		{
			"buffer":0,
			"byteLength":896,
			"byteOffset":143220,
			"target":34962
		},
		{
			"buffer":0,
			"byteLength":504,
			"byteOffset":144116,
			"target":34963
		},
		{
			"buffer":0,
			"byteLength":9252,
			"byteOffset":144620,
			"target":34962
		},
		{
			"buffer":0,
			"byteLength":9252,
			"byteOffset":153872,
			"target":34962
		},
		{
			"buffer":0,
			"byteLength":6168,
			"byteOffset":163124,
			"target":34962
		},
		{
			"buffer":0,
			"byteLength":3084,
			"byteOffset":169292,
			"target":34962
		},
		{
			"buffer":0,
			"byteLength":12336,
			"byteOffset":172376,
			"target":34962
		},
		{
			"buffer":0,
			"byteLength":6492,
			"byteOffset":184712,
			"target":34963
		},
		{
			"buffer":0,
			"byteLength":6036,
			"byteOffset":191204,
			"target":34962
		},
		{
			"buffer":0,
			"byteLength":6036,
			"byteOffset":197240,
			"target":34962
		},
		{
			"buffer":0,
			"byteLength":4024,
			"byteOffset":203276,
			"target":34962
		},
		{
			"buffer":0,
			"byteLength":2012,
			"byteOffset":207300,
			"target":34962
		},
		{
			"buffer":0,
			"byteLength":8048,
			"byteOffset":209312,
			"target":34962
		},
		{
			"buffer":0,
			"byteLength":2508,
			"byteOffset":217360,
			"target":34963
		},
		{
			"buffer":0,
			"byteLength":5916,
			"byteOffset":219868,
			"target":34962
		},
		{
			"buffer":0,
			"byteLength":5916,
			"byteOffset":225784,
			"target":34962
		},
		{
			"buffer":0,
			"byteLength":3944,
			"byteOffset":231700,
			"target":34962
		},
		{
			"buffer":0,
			"byteLength":1972,
			"byteOffset":235644,
			"target":34962
		},
		{
			"buffer":0,
			"byteLength":7888,
			"byteOffset":237616,
			"target":34962
		},
		{
			"buffer":0,
			"byteLength":2568,
			"byteOffset":245504,
			"target":34963
		},
		{
			"buffer":0,
			"byteLength":7044,
			"byteOffset":248072,
			"target":34962
		},
		{
			"buffer":0,
			"byteLength":7044,
			"byteOffset":255116,
			"target":34962
		},
		{
			"buffer":0,
			"byteLength":4696,
			"byteOffset":262160,
			"target":34962
		},
		{
			"buffer":0,
			"byteLength":2348,
			"byteOffset":266856,
			"target":34962
		},
		{
			"buffer":0,
			"byteLength":9392,
			"byteOffset":269204,
			"target":34962
		},
		{
			"buffer":0,
			"byteLength":3768,
			"byteOffset":278596,
			"target":34963
		},
		{
			"buffer":0,
			"byteLength":7044,
			"byteOffset":282364,
			"target":34962
		},
		{
			"buffer":0,
			"byteLength":7044,
			"byteOffset":289408,
			"target":34962
		},
		{
			"buffer":0,
			"byteLength":4696,
			"byteOffset":296452,
			"target":34962
		},
		{
			"buffer":0,
			"byteLength":2348,
			"byteOffset":301148,
			"target":34962
		},
		{
			"buffer":0,
			"byteLength":9392,
			"byteOffset":303496,
			"target":34962
		},
		{
			"buffer":0,
			"byteLength":3768,
			"byteOffset":312888,
			"target":34963
		}
	],
	"samplers":[
		{
			"magFilter":9729,
			"minFilter":9987
		}
	],
	"buffers":[
		{
			"byteLength":316656,
			"uri":"knight.bin"
		}
	]
}
