{
	"asset":{
		"generator":"Khronos glTF Blender I/O v4.1.63",
		"version":"2.0"
	},
	"scene":0,
	"scenes":[
		{
			"name":"Scene",
			"nodes":[
				31
			]
		}
	],
	"nodes":[
		{
			"mesh":0,
			"name":"Mage_ArmLeft"
		},
		{
			"mesh":1,
			"name":"Mage_ArmRight"
		},
		{
			"mesh":2,
			"name":"Mage_Body"
		},
		{
			"mesh":3,
			"name":"Mage_Cape"
		},
		{
			"mesh":4,
			"name":"Mage_Hat"
		},
		{
			"mesh":5,
			"name":"Mage_Head"
		},
		{
			"mesh":6,
			"name":"Mage_LegLeft"
		},
		{
			"mesh":7,
			"name":"Mage_LegRight"
		},
		{
			"name":"toes.r",
			"rotation":[
				4.8837026866976885e-08,
				0.9203547835350037,
				-0.3910844922065735,
				4.0229977571470954e-08
			],
			"scale":[
				1,
				0.9999998807907104,
				0.9999999403953552
			],
			"translation":[
				-1.6149082071592602e-10,
				0.16565002501010895,
				2.8460398482366145e-09
			]
		},
		{
			"children":[
				8
			],
			"name":"foot.r",
			"rotation":[
				-0.455239862203598,
				7.505242649585853e-08,
				-3.837386941540899e-08,
				0.8903688192367554
			],
			"scale":[
				1,
				1,
				1.0000001192092896
			],
			"translation":[
				1.4901158529312397e-08,
				0.1494370698928833,
				3.725589170500143e-09
			]
		},
		{
			"children":[
				9
			],
			"name":"lowerleg.r",
			"rotation":[
				0.10622712969779968,
				-7.671461332847684e-08,
				7.478843855324158e-08,
				0.9943419098854065
			],
			"translation":[
				1.188816689534633e-08,
				0.2270774096250534,
				-2.320748393458416e-08
			]
		},
		{
			"children":[
				10
			],
			"name":"upperleg.r",
			"rotation":[
				0.9998490810394287,
				6.737205637818988e-08,
				1.0017320306587862e-07,
				0.017373913899064064
			],
			"scale":[
				1,
				1,
				1.000000238418579
			],
			"translation":[
				-0.17094504833221436,
				0.11358726024627686,
				5.324676255469285e-09
			]
		},
		{
			"name":"handslot.l",
			"rotation":[
				1.0644983206020697e-07,
				-5.817130599439224e-08,
				-0.7071067690849304,
				0.7071067690849304
			],
			"translation":[
				5.13851183825409e-10,
				0.0961250588297844,
				-0.05750000476837158
			]
		},
		{
			"children":[
				12
			],
			"name":"hand.l",
			"rotation":[
				-6.352649526211729e-14,
				-1.7731265945526015e-14,
				-3.947048850955204e-14,
				1
			],
			"translation":[
				-1.687538997430238e-14,
				0.0738258883357048,
				-1.192094174484737e-07
			]
		},
		{
			"children":[
				13
			],
			"name":"wrist.l",
			"rotation":[
				-2.35286705674298e-07,
				4.607970005565676e-09,
				0.026658091694116592,
				0.9996446371078491
			],
			"scale":[
				0.9999999403953552,
				0.9999999403953552,
				1
			],
			"translation":[
				5.125531998828592e-09,
				0.26004382967948914,
				-2.1610051703646604e-07
			]
		},
		{
			"children":[
				14
			],
			"name":"lowerarm.l",
			"rotation":[
				2.4548461396989296e-07,
				-8.071528156960994e-08,
				-0.05529647320508957,
				0.9984699487686157
			],
			"translation":[
				-5.189804141991772e-10,
				0.24189728498458862,
				4.479902226961485e-09
			]
		},
		{
			"children":[
				15
			],
			"name":"upperarm.l",
			"rotation":[
				-0.5141242742538452,
				-0.48546481132507324,
				-0.4854649603366852,
				0.5141244530677795
			],
			"translation":[
				0.2120073288679123,
				0.13413214683532715,
				8.9213060050497e-08
			]
		},
		{
			"name":"head",
			"rotation":[
				-7.480251295222291e-15,
				8.881784197001252e-15,
				-1.324867530293936e-22,
				1
			],
			"translation":[
				-4.49357638372469e-23,
				0.26879656314849854,
				0
			]
		},
		{
			"name":"handslot.r",
			"rotation":[
				1.0656656002083764e-07,
				5.805457803376157e-08,
				0.7071067690849304,
				0.7071067690849304
			],
			"translation":[
				-5.13851183825409e-10,
				0.0961250588297844,
				-0.05750000476837158
			]
		},
		{
			"children":[
				18
			],
			"name":"hand.r",
			"rotation":[
				-1.3271095496259889e-17,
				1.0624607002019705e-14,
				3.945127780230831e-14,
				1
			],
			"translation":[
				1.687538997430238e-14,
				0.0738258883357048,
				-1.1920928244535389e-07
			]
		},
		{
			"children":[
				19
			],
			"name":"wrist.r",
			"rotation":[
				-2.3529011627942964e-07,
				-4.599238323521604e-09,
				-0.026658091694116592,
				0.9996446371078491
			],
			"scale":[
				0.9999999403953552,
				0.9999999403953552,
				1
			],
			"translation":[
				-5.125517787973877e-09,
				0.26004382967948914,
				-2.1610563294416352e-07
			]
		},
		{
			"children":[
				20
			],
			"name":"lowerarm.r",
			"rotation":[
				2.435313888327073e-07,
				4.5312415153375696e-08,
				0.05529647320508957,
				0.9984699487686157
			],
			"translation":[
				1.2367422641546e-09,
				0.24189728498458862,
				3.620116206803914e-09
			]
		},
		{
			"children":[
				21
			],
			"name":"upperarm.r",
			"rotation":[
				-0.51412433385849,
				0.48546478152275085,
				0.4854649007320404,
				0.5141244530677795
			],
			"translation":[
				-0.2120073288679123,
				0.13413214683532715,
				7.469969176554514e-08
			]
		},
		{
			"children":[
				16,
				17,
				22
			],
			"name":"chest",
			"rotation":[
				5.582673029641636e-15,
				-8.881784197001252e-15,
				1.1222096686136375e-22,
				1
			],
			"translation":[
				-1.0504770949978253e-22,
				0.3749878406524658,
				3.552713678800501e-15
			]
		},
		{
			"children":[
				23
			],
			"name":"spine",
			"rotation":[
				-2.07245457028841e-15,
				1.7763568394002505e-15,
				-1.460642388104923e-23,
				1
			],
			"translation":[
				-1.9159075849155387e-23,
				0.19197750091552734,
				8.881784197001252e-16
			]
		},
		{
			"name":"toes.l",
			"rotation":[
				-1.0215062573593059e-08,
				0.9203547835350037,
				-0.3910844922065735,
				1.7919967376656132e-07
			],
			"scale":[
				1,
				0.9999998807907104,
				0.9999999403953552
			],
			"translation":[
				-1.6149015458211124e-10,
				0.16565002501010895,
				8.797638173518862e-10
			]
		},
		{
			"children":[
				25
			],
			"name":"foot.l",
			"rotation":[
				-0.455239862203598,
				7.505248333927739e-08,
				-3.8373826782844844e-08,
				0.8903688192367554
			],
			"scale":[
				1,
				1,
				1.0000001192092896
			],
			"translation":[
				-1.4901156752955558e-08,
				0.1494370698928833,
				3.725659780684509e-09
			]
		},
		{
			"children":[
				26
			],
			"name":"lowerleg.l",
			"rotation":[
				0.10622712969779968,
				7.684135994168173e-08,
				-7.360600307038112e-08,
				0.9943419098854065
			],
			"translation":[
				-1.1194018156857055e-08,
				0.2270774096250534,
				-2.3207560317928255e-08
			]
		},
		{
			"children":[
				27
			],
			"name":"upperleg.l",
			"rotation":[
				0.9998490810394287,
				-6.677772290686335e-08,
				-6.597082347070682e-08,
				0.017373913899064064
			],
			"scale":[
				1,
				1,
				1.000000238418579
			],
			"translation":[
				0.17094504833221436,
				0.11358726024627686,
				1.702706420303457e-08
			]
		},
		{
			"children":[
				11,
				24,
				28
			],
			"name":"hips",
			"rotation":[
				-2.347496756173722e-16,
				-1.0331726940648878e-07,
				-1.4136407143083162e-24,
				1
			],
			"translation":[
				-2.117582241918006e-22,
				0.4056633710861206,
				8.881784197001252e-16
			]
		},
		{
			"children":[
				29
			],
			"name":"root",
			"rotation":[
				-8.557132780140364e-09,
				1.2043153674312634e-07,
				-2.0610973407733874e-15,
				1
			]
		},
		{
			"children":[
				0,
				1,
				2,
				3,
				4,
				5,
				6,
				7,
				30
			],
			"name":"Rig_Medium"
		}
	],
	"materials":[
		{
			"doubleSided":true,
			"name":"mage",
			"pbrMetallicRoughness":{
				"baseColorTexture":{
					"index":0
				},
				"metallicFactor":0,
				"roughnessFactor":0.5
			}
		}
	],
	"meshes":[
		{
			"name":"Mage_ArmLeft",
			"primitives":[
				{
					"attributes":{
						"POSITION":0,
						"NORMAL":1,
						"TEXCOORD_0":2
					},
					"indices":3,
					"material":0
				}
			]
		},
		{
			"name":"Mage_ArmRight",
			"primitives":[
				{
					"attributes":{
						"POSITION":4,
						"NORMAL":5,
						"TEXCOORD_0":6
					},
					"indices":7,
					"material":0
				}
			]
		},
		{
			"name":"Mage_Body",
			"primitives":[
				{
					"attributes":{
						"POSITION":8,
						"NORMAL":9,
						"TEXCOORD_0":10
					},
					"indices":11,
					"material":0
				}
			]
		},
		{
			"name":"Mage_Cape",
			"primitives":[
				{
					"attributes":{
						"POSITION":12,
						"NORMAL":13,
						"TEXCOORD_0":14
					},
					"indices":15,
					"material":0
				}
			]
		},
		{
			"name":"Mage_Hat",
			"primitives":[
				{
					"attributes":{
						"POSITION":16,
						"NORMAL":17,
						"TEXCOORD_0":18
					},
					"indices":19,
					"material":0
				}
			]
		},
		{
			"name":"Mage_Head",
			"primitives":[
				{
					"attributes":{
						"POSITION":20,
						"NORMAL":21,
						"TEXCOORD_0":22
					},
					"indices":23,
					"material":0
				}
			]
		},
		{
			"name":"Mage_LegLeft",
			"primitives":[
				{
					"attributes":{
						"POSITION":24,
						"NORMAL":25,
						"TEXCOORD_0":26
					},
					"indices":27,
					"material":0
				}
			]
		},
		{
			"name":"Mage_LegRight",
			"primitives":[
				{
					"attributes":{
						"POSITION":28,
						"NORMAL":29,
						"TEXCOORD_0":30
					},
					"indices":31,
					"material":0
				}
			]
		}
	],
	"textures":[
		{
			"sampler":0,
			"source":0
		}
	],
	"images":[
		{
			"mimeType":"image/png",
			"name":"mage_texture",
			"uri":"mage_texture.png"
		}
	],
	"skins":[
		{
			"inverseBindMatrices":32,
			"joints":[
				30,
				29,
				11,
				10,
				9,
				8,
				24,
				23,
				16,
				15,
				14,
				13,
				12,
				17,
				22,
				21,
				20,
				19,
				18,
				28,
				27,
				26,
				25
			],
			"name":"Rig_Medium"
		}
	],
	"accessors":[
		{
			"bufferView":0,
			"componentType":5126,
			"count":332,
			"max":[
				0.9712528586387634,
				1.2524549961090088,
				0.13550840318202972
			],
			"min":[
				0.08884552121162415,
				0.9572845697402954,
				-0.1355096995830536
			],
			"type":"VEC3"
		},
		{
			"bufferView":1,
			"componentType":5126,
			"count":332,
			"type":"VEC3"
		},
		{
			"bufferView":2,
			"componentType":5126,
			"count":332,
			"type":"VEC2"
		},
		{
			"bufferView":3,
			"componentType":5123,
			"count":1404,
			"type":"SCALAR"
		},
		{
			"bufferView":4,
			"componentType":5126,
			"count":332,
			"max":[
				-0.08884552121162415,
				1.2524549961090088,
				0.13550829887390137
			],
			"min":[
				-0.9712529182434082,
				0.9572842717170715,
				-0.13550980389118195
			],
			"type":"VEC3"
		},
		{
			"bufferView":5,
			"componentType":5126,
			"count":332,
			"type":"VEC3"
		},
		{
			"bufferView":6,
			"componentType":5126,
			"count":332,
			"type":"VEC2"
		},
		{
			"bufferView":7,
			"componentType":5123,
			"count":1404,
			"type":"SCALAR"
		},
		{
			"bufferView":8,
			"componentType":5126,
			"count":1289,
			"max":[
				0.4260803759098053,
				1.3087888956069946,
				0.38668370246887207
			],
			"min":[
				-0.4260346293449402,
				0.35393550992012024,
				-0.37630411982536316
			],
			"type":"VEC3"
		},
		{
			"bufferView":9,
			"componentType":5126,
			"count":1289,
			"type":"VEC3"
		},
		{
			"bufferView":10,
			"componentType":5126,
			"count":1289,
			"type":"VEC2"
		},
		{
			"bufferView":11,
			"componentType":5123,
			"count":3690,
			"type":"SCALAR"
		},
		{
			"bufferView":12,
			"componentType":5126,
			"count":56,
			"max":[
				0.4853890538215637,
				1.235973596572876,
				-0.04350500553846359
			],
			"min":[
				-0.4853677749633789,
				0.05508005619049072,
				-0.3860938549041748
			],
			"type":"VEC3"
		},
		{
			"bufferView":13,
			"componentType":5126,
			"count":56,
			"type":"VEC3"
		},
		{
			"bufferView":14,
			"componentType":5126,
			"count":56,
			"type":"VEC2"
		},
		{
			"bufferView":15,
			"componentType":5123,
			"count":252,
			"type":"SCALAR"
		},
		{
			"bufferView":16,
			"componentType":5126,
			"count":395,
			"max":[
				0.9316306710243225,
				2.652670383453369,
				0.9999840259552002
			],
			"min":[
				-0.9309267401695251,
				1.3068184852600098,
				-0.9665125012397766
			],
			"type":"VEC3"
		},
		{
			"bufferView":17,
			"componentType":5126,
			"count":395,
			"type":"VEC3"
		},
		{
			"bufferView":18,
			"componentType":5126,
			"count":395,
			"type":"VEC2"
		},
		{
			"bufferView":19,
			"componentType":5123,
			"count":1188,
			"type":"SCALAR"
		},
		{
			"bufferView":20,
			"componentType":5126,
			"count":1481,
			"max":[
				0.57009357213974,
				2.1600069999694824,
				0.5254158973693848
			],
			"min":[
				-0.570138692855835,
				1.0836437940597534,
				-0.505932629108429
			],
			"type":"VEC3"
		},
		{
			"bufferView":21,
			"componentType":5126,
			"count":1481,
			"type":"VEC3"
		},
		{
			"bufferView":22,
			"componentType":5126,
			"count":1481,
			"type":"VEC2"
		},
		{
			"bufferView":23,
			"componentType":5123,
			"count":6486,
			"type":"SCALAR"
		},
		{
			"bufferView":24,
			"componentType":5126,
			"count":786,
			"max":[
				0.29099878668785095,
				0.5291944146156311,
				0.2806134819984436
			],
			"min":[
				0.04587031528353691,
				-0.0020256838761270046,
				-0.12776322662830353
			],
			"type":"VEC3"
		},
		{
			"bufferView":25,
			"componentType":5126,
			"count":786,
			"type":"VEC3"
		},
		{
			"bufferView":26,
			"componentType":5126,
			"count":786,
			"type":"VEC2"
		},
		{
			"bufferView":27,
			"componentType":5123,
			"count":2790,
			"type":"SCALAR"
		},
		{
			"bufferView":28,
			"componentType":5126,
			"count":786,
			"max":[
				-0.04587031900882721,
				0.5291944146156311,
				0.2806134819984436
			],
			"min":[
				-0.29099878668785095,
				-0.0020256838761270046,
				-0.12776324152946472
			],
			"type":"VEC3"
		},
		{
			"bufferView":29,
			"componentType":5126,
			"count":786,
			"type":"VEC3"
		},
		{
			"bufferView":30,
			"componentType":5126,
			"count":786,
			"type":"VEC2"
		},
		{
			"bufferView":31,
			"componentType":5123,
			"count":2790,
			"type":"SCALAR"
		},
		{
			"bufferView":32,
			"componentType":5126,
			"count":23,
			"type":"MAT4"
		}
	],
	"bufferViews":[
		{
			"buffer":0,
			"byteLength":3984,
			"byteOffset":0,
			"target":34962
		},
		{
			"buffer":0,
			"byteLength":3984,
			"byteOffset":3984,
			"target":34962
		},
		{
			"buffer":0,
			"byteLength":2656,
			"byteOffset":7968,
			"target":34962
		},
		{
			"buffer":0,
			"byteLength":2808,
			"byteOffset":10624,
			"target":34963
		},
		{
			"buffer":0,
			"byteLength":3984,
			"byteOffset":13432,
			"target":34962
		},
		{
			"buffer":0,
			"byteLength":3984,
			"byteOffset":17416,
			"target":34962
		},
		{
			"buffer":0,
			"byteLength":2656,
			"byteOffset":21400,
			"target":34962
		},
		{
			"buffer":0,
			"byteLength":2808,
			"byteOffset":24056,
			"target":34963
		},
		{
			"buffer":0,
			"byteLength":15468,
			"byteOffset":26864,
			"target":34962
		},
		{
			"buffer":0,
			"byteLength":15468,
			"byteOffset":42332,
			"target":34962
		},
		{
			"buffer":0,
			"byteLength":10312,
			"byteOffset":57800,
			"target":34962
		},
		{
			"buffer":0,
			"byteLength":7380,
			"byteOffset":68112,
			"target":34963
		},
		{
			"buffer":0,
			"byteLength":672,
			"byteOffset":75492,
			"target":34962
		},
		{
			"buffer":0,
			"byteLength":672,
			"byteOffset":76164,
			"target":34962
		},
		{
			"buffer":0,
			"byteLength":448,
			"byteOffset":76836,
			"target":34962
		},
		{
			"buffer":0,
			"byteLength":504,
			"byteOffset":77284,
			"target":34963
		},
		{
			"buffer":0,
			"byteLength":4740,
			"byteOffset":77788,
			"target":34962
		},
		{
			"buffer":0,
			"byteLength":4740,
			"byteOffset":82528,
			"target":34962
		},
		{
			"buffer":0,
			"byteLength":3160,
			"byteOffset":87268,
			"target":34962
		},
		{
			"buffer":0,
			"byteLength":2376,
			"byteOffset":90428,
			"target":34963
		},
		{
			"buffer":0,
			"byteLength":17772,
			"byteOffset":92804,
			"target":34962
		},
		{
			"buffer":0,
			"byteLength":17772,
			"byteOffset":110576,
			"target":34962
		},
		{
			"buffer":0,
			"byteLength":11848,
			"byteOffset":128348,
			"target":34962
		},
		{
			"buffer":0,
			"byteLength":12972,
			"byteOffset":140196,
			"target":34963
		},
		{
			"buffer":0,
			"byteLength":9432,
			"byteOffset":153168,
			"target":34962
		},
		{
			"buffer":0,
			"byteLength":9432,
			"byteOffset":162600,
			"target":34962
		},
		{
			"buffer":0,
			"byteLength":6288,
			"byteOffset":172032,
			"target":34962
		},
		{
			"buffer":0,
			"byteLength":5580,
			"byteOffset":178320,
			"target":34963
		},
		{
			"buffer":0,
			"byteLength":9432,
			"byteOffset":183900,
			"target":34962
		},
		{
			"buffer":0,
			"byteLength":9432,
			"byteOffset":193332,
			"target":34962
		},
		{
			"buffer":0,
			"byteLength":6288,
			"byteOffset":202764,
			"target":34962
		},
		{
			"buffer":0,
			"byteLength":5580,
			"byteOffset":209052,
			"target":34963
		},
		{
			"buffer":0,
			"byteLength":1472,
			"byteOffset":214632
		}
	],
	"samplers":[
		{
			"magFilter":9729,
			"minFilter":9987
		}
	],
	"buffers":[
		{
			"byteLength":216104,
			"uri":"player.bin"
		}
	]
}
