{
	"asset":{
		"generator":"Khronos glTF Blender I/O v4.1.63",
		"version":"2.0"
	},
	"extensionsUsed":[
		"KHR_materials_specular"
	],
	"scene":0,
	"scenes":[
		{
			"name":"Scene",
			"nodes":[
				0,
				1,
				2,
				3,
				4,
				5,
				6,
				7,
				8
			]
		}
	],
	"nodes":[
		{
			"mesh":0,
			"name":"Cylinder",
			"translation":[
				-0.029802551493048668,
				-1,
				0.012344621121883392
			]
		},
		{
			"mesh":1,
			"name":"leaves",
			"rotation":[
				-0.06884055584669113,
				0.06546605378389359,
				-0.25337424874305725,
				0.962692379951477
			],
			"scale":[
				0.7930918335914612,
				0.7930918335914612,
				0.7930918335914612
			],
			"translation":[
				2.440894603729248,
				25.898639678955078,
				1.4814989566802979
			]
		},
		{
			"mesh":2,
			"name":"leave",
			"translation":[
				-0.026002444326877594,
				15.756607055664062,
				3.3444855213165283
			]
		},
		{
			"mesh":3,
			"name":"leaves.001",
			"rotation":[
				-0.03660351410508156,
				-0.022791314870119095,
				-0.10340707004070282,
				0.9937041401863098
			],
			"scale":[
				1.2304763793945312,
				1.2304763793945312,
				1.2304762601852417
			],
			"translation":[
				-0.27205657958984375,
				21.805519104003906,
				1.9959542751312256
			]
		},
		{
			"mesh":4,
			"name":"leaves.002",
			"rotation":[
				0.11958634853363037,
				-0.7444485425949097,
				0.17084015905857086,
				0.634278416633606
			],
			"scale":[
				0.7460916042327881,
				0.7460917234420776,
				0.7460917234420776
			],
			"translation":[
				-6.342528343200684,
				19.032960891723633,
				5.500702857971191
			]
		},
		{
			"mesh":5,
			"name":"leaves.003",
			"rotation":[
				0.2628168761730194,
				-0.7464806437492371,
				0.20439979434013367,
				0.5761203765869141
			],
			"scale":[
				0.8603479862213135,
				0.8341661691665649,
				1.2474623918533325
			],
			"translation":[
				-6.616744518280029,
				23.579238891601562,
				0.8280056715011597
			]
		},
		{
			"mesh":6,
			"name":"leaves.004",
			"rotation":[
				-0.28705915808677673,
				0.24778307974338531,
				0.27933982014656067,
				0.8821393847465515
			],
			"scale":[
				0.5560101270675659,
				0.3461083769798279,
				0.5560101270675659
			],
			"translation":[
				-12.112258911132812,
				23.762636184692383,
				-2.8582875728607178
			]
		},
		{
			"mesh":7,
			"name":"leaves.005",
			"rotation":[
				0.16651098430156708,
				0.8692992925643921,
				-0.3594456911087036,
				0.29562076926231384
			],
			"scale":[
				1.081041932106018,
				0.6729331016540527,
				0.8357459306716919
			],
			"translation":[
				5.390725135803223,
				25.27384376525879,
				-1.9428787231445312
			]
		},
		{
			"mesh":8,
			"name":"leaves.006",
			"rotation":[
				0.338387668132782,
				0.46723681688308716,
				0.21064284443855286,
				0.789185106754303
			],
			"scale":[
				0.5585528612136841,
				0.4770987927913666,
				0.5585528612136841
			],
			"translation":[
				0.06899654865264893,
				26.92325782775879,
				10.633039474487305
			]
		}
	],
	"materials":[
		{
			"doubleSided":true,
			"name":"Material",
			"pbrMetallicRoughness":{
				"baseColorFactor":[
					0.14438287913799286,
					0.04435490071773529,
					0.031051386147737503,
					1
				],
				"metallicFactor":0,
				"roughnessFactor":0.5
			}
		},
		{
			"doubleSided":true,
			"name":"leave",
			"pbrMetallicRoughness":{
				"baseColorFactor":[
					0.19904953241348267,
					0.47804760932922363,
					0.05204235762357712,
					1
				],
				"metallicFactor":0,
				"roughnessFactor":0.5
			}
		},
		{
			"doubleSided":true,
			"name":"leave.001",
			"pbrMetallicRoughness":{
				"baseColorFactor":[
					0.21220454573631287,
					0.20511272549629211,
					0.02149331010878086,
					1
				],
				"metallicFactor":0,
				"roughnessFactor":0.5
			}
		},
		{
			"doubleSided":true,
			"extensions":{
				"KHR_materials_specular":{
					"specularFactor":0
				}
			},
			"name":"leave.002",
			"pbrMetallicRoughness":{
				"baseColorFactor":[
					0.25362342596054077,
					0.07917001843452454,
					0.06364486366510391,
					1
				],
				"metallicFactor":0,
				"roughnessFactor":0.6000000238418579
			}
		}
	],
	"meshes":[
		{
			"name":"Cylinder",
			"primitives":[
				{
					"attributes":{
						"POSITION":0,
						"NORMAL":1,
						"TEXCOORD_0":2
					},
					"indices":3,
					"material":0
				}
			]
		},
		{
			"name":"Sphere",
			"primitives":[
				{
					"attributes":{
						"POSITION":4,
						"NORMAL":5,
						"TEXCOORD_0":6
					},
					"indices":7,
					"material":1
				},
				{
					"attributes":{
						"POSITION":8,
						"NORMAL":9,
						"TEXCOORD_0":10
					},
					"indices":11,
					"material":2
				},
				{
					"attributes":{
						"POSITION":12,
						"NORMAL":13,
						"TEXCOORD_0":14
					},
					"indices":15,
					"material":3
				}
			]
		},
		{
			"name":"Plane",
			"primitives":[
				{
					"attributes":{
						"POSITION":16,
						"NORMAL":17,
						"TEXCOORD_0":18
					},
					"indices":19
				}
			]
		},
		{
			"name":"Sphere.001",
			"primitives":[
				{
					"attributes":{
						"POSITION":20,
						"NORMAL":21,
						"TEXCOORD_0":22
					},
					"indices":7,
					"material":1
				},
				{
					"attributes":{
						"POSITION":23,
						"NORMAL":24,
						"TEXCOORD_0":25
					},
					"indices":11,
					"material":2
				},
				{
					"attributes":{
						"POSITION":26,
						"NORMAL":27,
						"TEXCOORD_0":28
					},
					"indices":15,
					"material":3
				}
			]
		},
		{
			"name":"Sphere.002",
			"primitives":[
				{
					"attributes":{
						"POSITION":29,
						"NORMAL":30,
						"TEXCOORD_0":31
					},
					"indices":7,
					"material":1
				},
				{
					"attributes":{
						"POSITION":32,
						"NORMAL":33,
						"TEXCOORD_0":34
					},
					"indices":11,
					"material":2
				},
				{
					"attributes":{
						"POSITION":35,
						"NORMAL":36,
						"TEXCOORD_0":37
					},
					"indices":15,
					"material":3
				}
			]
		},
		{
			"name":"Sphere.003",
			"primitives":[
				{
					"attributes":{
						"POSITION":38,
						"NORMAL":39,
						"TEXCOORD_0":40
					},
					"indices":7,
					"material":1
				},
				{
					"attributes":{
						"POSITION":41,
						"NORMAL":42,
						"TEXCOORD_0":43
					},
					"indices":11,
					"material":2
				},
				{
					"attributes":{
						"POSITION":44,
						"NORMAL":45,
						"TEXCOORD_0":46
					},
					"indices":15,
					"material":3
				}
			]
		},
		{
			"name":"Sphere.004",
			"primitives":[
				{
					"attributes":{
						"POSITION":47,
						"NORMAL":48,
						"TEXCOORD_0":49
					},
					"indices":7,
					"material":1
				},
				{
					"attributes":{
						"POSITION":50,
						"NORMAL":51,
						"TEXCOORD_0":52
					},
					"indices":11,
					"material":2
				},
				{
					"attributes":{
						"POSITION":53,
						"NORMAL":54,
						"TEXCOORD_0":55
					},
					"indices":15,
					"material":3
				}
			]
		},
		{
			"name":"Sphere.005",
			"primitives":[
				{
					"attributes":{
						"POSITION":56,
						"NORMAL":57,
						"TEXCOORD_0":58
					},
					"indices":7,
					"material":1
				},
				{
					"attributes":{
						"POSITION":59,
						"NORMAL":60,
						"TEXCOORD_0":61
					},
					"indices":11,
					"material":2
				},
				{
					"attributes":{
						"POSITION":62,
						"NORMAL":63,
						"TEXCOORD_0":64
					},
					"indices":15,
					"material":3
				}
			]
		},
		{
			"name":"Sphere.006",
			"primitives":[
				{
					"attributes":{
						"POSITION":65,
						"NORMAL":66,
						"TEXCOORD_0":67
					},
					"indices":7,
					"material":1
				},
				{
					"attributes":{
						"POSITION":68,
						"NORMAL":69,
						"TEXCOORD_0":70
					},
					"indices":11,
					"material":2
				},
				{
					"attributes":{
						"POSITION":71,
						"NORMAL":72,
						"TEXCOORD_0":73
					},
					"indices":15,
					"material":3
				}
			]
		}
	],
	"accessors":[
		{
			"bufferView":0,
			"componentType":5126,
			"count":1600,
			"max":[
				3.1580827236175537,
				25.6492919921875,
				3.8296730518341064
			],
			"min":[
				-3.6727850437164307,
				0,
				-1.0123445987701416
			],
			"type":"VEC3"
		},
		{
			"bufferView":1,
			"componentType":5126,
			"count":1600,
			"type":"VEC3"
		},
		{
			"bufferView":2,
			"componentType":5126,
			"count":1600,
			"type":"VEC2"
		},
		{
			"bufferView":3,
			"componentType":5123,
			"count":2652,
			"type":"SCALAR"
		},
		{
			"bufferView":4,
			"componentType":5126,
			"count":1488,
			"max":[
				8.730555534362793,
				3.414401054382324,
				10.018974304199219
			],
			"min":[
				-9.18697738647461,
				-5.7527265548706055,
				-8.229875564575195
			],
			"type":"VEC3"
		},
		{
			"bufferView":5,
			"componentType":5126,
			"count":1488,
			"type":"VEC3"
		},
		{
			"bufferView":6,
			"componentType":5126,
			"count":1488,
			"type":"VEC2"
		},
		{
			"bufferView":7,
			"componentType":5123,
			"count":2232,
			"type":"SCALAR"
		},
		{
			"bufferView":8,
			"componentType":5126,
			"count":1440,
			"max":[
				9.227054595947266,
				4.462957859039307,
				10.140324592590332
			],
			"min":[
				-9.795166969299316,
				-6.014001846313477,
				-9.422197341918945
			],
			"type":"VEC3"
		},
		{
			"bufferView":9,
			"componentType":5126,
			"count":1440,
			"type":"VEC3"
		},
		{
			"bufferView":10,
			"componentType":5126,
			"count":1440,
			"type":"VEC2"
		},
		{
			"bufferView":11,
			"componentType":5123,
			"count":2160,
			"type":"SCALAR"
		},
		{
			"bufferView":12,
			"componentType":5126,
			"count":1800,
			"max":[
				7.798783302307129,
				4.522526741027832,
				8.911392211914062
			],
			"min":[
				-8.763663291931152,
				-5.6247382164001465,
				-10.043230056762695
			],
			"type":"VEC3"
		},
		{
			"bufferView":13,
			"componentType":5126,
			"count":1800,
			"type":"VEC3"
		},
		{
			"bufferView":14,
			"componentType":5126,
			"count":1800,
			"type":"VEC2"
		},
		{
			"bufferView":15,
			"componentType":5123,
			"count":2700,
			"type":"SCALAR"
		},
		{
			"bufferView":16,
			"componentType":5126,
			"count":24,
			"max":[
				0.12402713298797607,
				0.046923160552978516,
				0.1584247350692749
			],
			"min":[
				-0.07202273607254028,
				-0.14912670850753784,
				-0.037625133991241455
			],
			"type":"VEC3"
		},
		{
			"bufferView":17,
			"componentType":5126,
			"count":24,
			"type":"VEC3"
		},
		{
			"bufferView":18,
			"componentType":5126,
			"count":24,
			"type":"VEC2"
		},
		{
			"bufferView":19,
			"componentType":5123,
			"count":36,
			"type":"SCALAR"
		},
		{
			"bufferView":20,
			"componentType":5126,
			"count":1488,
			"max":[
				8.71861457824707,
				3.2157721519470215,
				9.453215599060059
			],
			"min":[
				-9.1080904006958,
				-5.4571027755737305,
				-8.200214385986328
			],
			"type":"VEC3"
		},
		{
			"bufferView":21,
			"componentType":5126,
			"count":1488,
			"type":"VEC3"
		},
		{
			"bufferView":22,
			"componentType":5126,
			"count":1488,
			"type":"VEC2"
		},
		{
			"bufferView":23,
			"componentType":5126,
			"count":1440,
			"max":[
				8.981856346130371,
				4.309521198272705,
				9.76043701171875
			],
			"min":[
				-9.384302139282227,
				-5.592113494873047,
				-9.16239070892334
			],
			"type":"VEC3"
		},
		{
			"bufferView":24,
			"componentType":5126,
			"count":1440,
			"type":"VEC3"
		},
		{
			"bufferView":25,
			"componentType":5126,
			"count":1440,
			"type":"VEC2"
		},
		{
			"bufferView":26,
			"componentType":5126,
			"count":1800,
			"max":[
				7.4102349281311035,
				4.278531074523926,
				8.768214225769043
			],
			"min":[
				-8.589542388916016,
				-5.366314888000488,
				-9.599976539611816
			],
			"type":"VEC3"
		},
		{
			"bufferView":27,
			"componentType":5126,
			"count":1800,
			"type":"VEC3"
		},
		{
			"bufferView":28,
			"componentType":5126,
			"count":1800,
			"type":"VEC2"
		},
		{
			"bufferView":29,
			"componentType":5126,
			"count":1488,
			"max":[
				8.732671737670898,
				3.4496026039123535,
				10.11923885345459
			],
			"min":[
				-9.200957298278809,
				-5.805117130279541,
				-8.235132217407227
			],
			"type":"VEC3"
		},
		{
			"bufferView":30,
			"componentType":5126,
			"count":1488,
			"type":"VEC3"
		},
		{
			"bufferView":31,
			"componentType":5126,
			"count":1488,
			"type":"VEC2"
		},
		{
			"bufferView":32,
			"componentType":5126,
			"count":1440,
			"max":[
				9.27797794342041,
				4.490150451660156,
				10.207649230957031
			],
			"min":[
				-9.86798095703125,
				-6.088769912719727,
				-9.468239784240723
			],
			"type":"VEC3"
		},
		{
			"bufferView":33,
			"componentType":5126,
			"count":1440,
			"type":"VEC3"
		},
		{
			"bufferView":34,
			"componentType":5126,
			"count":1440,
			"type":"VEC2"
		},
		{
			"bufferView":35,
			"componentType":5126,
			"count":1800,
			"max":[
				7.884011268615723,
				4.565767765045166,
				8.936766624450684
			],
			"min":[
				-8.79452133178711,
				-5.670536518096924,
				-10.121783256530762
			],
			"type":"VEC3"
		},
		{
			"bufferView":36,
			"componentType":5126,
			"count":1800,
			"type":"VEC3"
		},
		{
			"bufferView":37,
			"componentType":5126,
			"count":1800,
			"type":"VEC2"
		},
		{
			"bufferView":38,
			"componentType":5126,
			"count":1488,
			"max":[
				8.724129676818848,
				3.3075222969055176,
				9.714550018310547
			],
			"min":[
				-9.144529342651367,
				-5.593656539916992,
				-8.213915824890137
			],
			"type":"VEC3"
		},
		{
			"bufferView":39,
			"componentType":5126,
			"count":1488,
			"type":"VEC3"
		},
		{
			"bufferView":40,
			"componentType":5126,
			"count":1488,
			"type":"VEC2"
		},
		{
			"bufferView":41,
			"componentType":5126,
			"count":1440,
			"max":[
				9.072441101074219,
				4.380396366119385,
				9.935914039611816
			],
			"min":[
				-9.574088096618652,
				-5.786991596221924,
				-9.282400131225586
			],
			"type":"VEC3"
		},
		{
			"bufferView":42,
			"componentType":5126,
			"count":1440,
			"type":"VEC3"
		},
		{
			"bufferView":43,
			"componentType":5126,
			"count":1440,
			"type":"VEC2"
		},
		{
			"bufferView":44,
			"componentType":5126,
			"count":1800,
			"max":[
				7.540011882781982,
				4.391237258911133,
				8.8343505859375
			],
			"min":[
				-8.669971466064453,
				-5.485685348510742,
				-9.804723739624023
			],
			"type":"VEC3"
		},
		{
			"bufferView":45,
			"componentType":5126,
			"count":1800,
			"type":"VEC3"
		},
		{
			"bufferView":46,
			"componentType":5126,
			"count":1800,
			"type":"VEC2"
		},
		{
			"bufferView":47,
			"componentType":5126,
			"count":1488,
			"max":[
				8.907588958740234,
				3.7674102783203125,
				11.024456024169922
			],
			"min":[
				-9.77481746673584,
				-6.278116226196289,
				-8.417891502380371
			],
			"type":"VEC3"
		},
		{
			"bufferView":48,
			"componentType":5126,
			"count":1488,
			"type":"VEC3"
		},
		{
			"bufferView":49,
			"componentType":5126,
			"count":1488,
			"type":"VEC2"
		},
		{
			"bufferView":50,
			"componentType":5126,
			"count":1440,
			"max":[
				9.737727165222168,
				4.735649585723877,
				10.815472602844238
			],
			"min":[
				-10.525367736816406,
				-6.763792991638184,
				-9.883931159973145
			],
			"type":"VEC3"
		},
		{
			"bufferView":51,
			"componentType":5126,
			"count":1440,
			"type":"VEC3"
		},
		{
			"bufferView":52,
			"componentType":5126,
			"count":1440,
			"type":"VEC2"
		},
		{
			"bufferView":53,
			"componentType":5126,
			"count":1800,
			"max":[
				8.653475761413574,
				4.9561614990234375,
				9.306654930114746
			],
			"min":[
				-9.073114395141602,
				-6.430842399597168,
				-10.830989837646484
			],
			"type":"VEC3"
		},
		{
			"bufferView":54,
			"componentType":5126,
			"count":1800,
			"type":"VEC3"
		},
		{
			"bufferView":55,
			"componentType":5126,
			"count":1800,
			"type":"VEC2"
		},
		{
			"bufferView":56,
			"componentType":5126,
			"count":1488,
			"max":[
				8.727825164794922,
				3.368992328643799,
				9.889636039733887
			],
			"min":[
				-9.168943405151367,
				-5.68514347076416,
				-8.223094940185547
			],
			"type":"VEC3"
		},
		{
			"bufferView":57,
			"componentType":5126,
			"count":1488,
			"type":"VEC3"
		},
		{
			"bufferView":58,
			"componentType":5126,
			"count":1488,
			"type":"VEC2"
		},
		{
			"bufferView":59,
			"componentType":5126,
			"count":1440,
			"max":[
				9.161365509033203,
				4.427880764007568,
				10.053478240966797
			],
			"min":[
				-9.701238632202148,
				-5.917553901672363,
				-9.362802505493164
			],
			"type":"VEC3"
		},
		{
			"bufferView":60,
			"componentType":5126,
			"count":1440,
			"type":"VEC3"
		},
		{
			"bufferView":61,
			"componentType":5126,
			"count":1440,
			"type":"VEC2"
		},
		{
			"bufferView":62,
			"componentType":5126,
			"count":1800,
			"max":[
				7.688841342926025,
				4.4667463302612305,
				8.878660202026367
			],
			"min":[
				-8.723856925964355,
				-5.565659999847412,
				-9.94189739227295
			],
			"type":"VEC3"
		},
		{
			"bufferView":63,
			"componentType":5126,
			"count":1800,
			"type":"VEC3"
		},
		{
			"bufferView":64,
			"componentType":5126,
			"count":1800,
			"type":"VEC2"
		},
		{
			"bufferView":65,
			"componentType":5126,
			"count":1488,
			"max":[
				8.762256622314453,
				3.6895816326141357,
				10.802776336669922
			],
			"min":[
				-9.613720893859863,
				-6.162282943725586,
				-8.317305564880371
			],
			"type":"VEC3"
		},
		{
			"bufferView":66,
			"componentType":5126,
			"count":1488,
			"type":"VEC3"
		},
		{
			"bufferView":67,
			"componentType":5126,
			"count":1488,
			"type":"VEC2"
		},
		{
			"bufferView":68,
			"componentType":5126,
			"count":1440,
			"max":[
				9.625138282775879,
				4.6755290031433105,
				10.666621208190918
			],
			"min":[
				-10.364378929138184,
				-6.598485469818115,
				-9.78213119506836
			],
			"type":"VEC3"
		},
		{
			"bufferView":69,
			"componentType":5126,
			"count":1440,
			"type":"VEC3"
		},
		{
			"bufferView":70,
			"componentType":5126,
			"count":1440,
			"type":"VEC2"
		},
		{
			"bufferView":71,
			"componentType":5126,
			"count":1800,
			"max":[
				8.46504020690918,
				4.8605570793151855,
				9.175250053405762
			],
			"min":[
				-9.004889488220215,
				-6.233184814453125,
				-10.65731143951416
			],
			"type":"VEC3"
		},
		{
			"bufferView":72,
			"componentType":5126,
			"count":1800,
			"type":"VEC3"
		},
		{
			"bufferView":73,
			"componentType":5126,
			"count":1800,
			"type":"VEC2"
		}
	],
	"bufferViews":[
		{
			"buffer":0,
			"byteLength":19200,
			"byteOffset":0,
			"target":34962
		},
		{
			"buffer":0,
			"byteLength":19200,
			"byteOffset":19200,
			"target":34962
		},
		{
			"buffer":0,
			"byteLength":12800,
			"byteOffset":38400,
			"target":34962
		},
		{
			"buffer":0,
			"byteLength":5304,
			"byteOffset":51200,
			"target":34963
		},
		{
			"buffer":0,
			"byteLength":17856,
			"byteOffset":56504,
			"target":34962
		},
		{
			"buffer":0,
			"byteLength":17856,
			"byteOffset":74360,
			"target":34962
		},
		{
			"buffer":0,
			"byteLength":11904,
			"byteOffset":92216,
			"target":34962
		},
		{
			"buffer":0,
			"byteLength":4464,
			"byteOffset":104120,
			"target":34963
		},
		{
			"buffer":0,
			"byteLength":17280,
			"byteOffset":108584,
			"target":34962
		},
		{
			"buffer":0,
			"byteLength":17280,
			"byteOffset":125864,
			"target":34962
		},
		{
			"buffer":0,
			"byteLength":11520,
			"byteOffset":143144,
			"target":34962
		},
		{
			"buffer":0,
			"byteLength":4320,
			"byteOffset":154664,
			"target":34963
		},
		{
			"buffer":0,
			"byteLength":21600,
			"byteOffset":158984,
			"target":34962
		},
		{
			"buffer":0,
			"byteLength":21600,
			"byteOffset":180584,
			"target":34962
		},
		{
			"buffer":0,
			"byteLength":14400,
			"byteOffset":202184,
			"target":34962
		},
		{
			"buffer":0,
			"byteLength":5400,
			"byteOffset":216584,
			"target":34963
		},
		{
			"buffer":0,
			"byteLength":288,
			"byteOffset":221984,
			"target":34962
		},
		{
			"buffer":0,
			"byteLength":288,
			"byteOffset":222272,
			"target":34962
		},
		{
			"buffer":0,
			"byteLength":192,
			"byteOffset":222560,
			"target":34962
		},
		{
			"buffer":0,
			"byteLength":72,
			"byteOffset":222752,
			"target":34963
		},
		{
			"buffer":0,
			"byteLength":17856,
			"byteOffset":222824,
			"target":34962
		},
		{
			"buffer":0,
			"byteLength":17856,
			"byteOffset":240680,
			"target":34962
		},
		{
			"buffer":0,
			"byteLength":11904,
			"byteOffset":258536,
			"target":34962
		},
		{
			"buffer":0,
			"byteLength":17280,
			"byteOffset":270440,
			"target":34962
		},
		{
			"buffer":0,
			"byteLength":17280,
			"byteOffset":287720,
			"target":34962
		},
		{
			"buffer":0,
			"byteLength":11520,
			"byteOffset":305000,
			"target":34962
		},
		{
			"buffer":0,
			"byteLength":21600,
			"byteOffset":316520,
			"target":34962
		},
		{
			"buffer":0,
			"byteLength":21600,
			"byteOffset":338120,
			"target":34962
		},
		{
			"buffer":0,
			"byteLength":14400,
			"byteOffset":359720,
			"target":34962
		},
		{
			"buffer":0,
			"byteLength":17856,
			"byteOffset":374120,
			"target":34962
		},
		{
			"buffer":0,
			"byteLength":17856,
			"byteOffset":391976,
			"target":34962
		},
		{
			"buffer":0,
			"byteLength":11904,
			"byteOffset":409832,
			"target":34962
		},
		{
			"buffer":0,
			"byteLength":17280,
			"byteOffset":421736,
			"target":34962
		},
		{
			"buffer":0,
			"byteLength":17280,
			"byteOffset":439016,
			"target":34962
		},
		{
			"buffer":0,
			"byteLength":11520,
			"byteOffset":456296,
			"target":34962
		},
		{
			"buffer":0,
			"byteLength":21600,
			"byteOffset":467816,
			"target":34962
		},
		{
			"buffer":0,
			"byteLength":21600,
			"byteOffset":489416,
			"target":34962
		},
		{
			"buffer":0,
			"byteLength":14400,
			"byteOffset":511016,
			"target":34962
		},
		{
			"buffer":0,
			"byteLength":17856,
			"byteOffset":525416,
			"target":34962
		},
		{
			"buffer":0,
			"byteLength":17856,
			"byteOffset":543272,
			"target":34962
		},
		{
			"buffer":0,
			"byteLength":11904,
			"byteOffset":561128,
			"target":34962
		},
		{
			"buffer":0,
			"byteLength":17280,
			"byteOffset":573032,
			"target":34962
		},
		{
			"buffer":0,
			"byteLength":17280,
			"byteOffset":590312,
			"target":34962
		},
		{
			"buffer":0,
			"byteLength":11520,
			"byteOffset":607592,
			"target":34962
		},
		{
			"buffer":0,
			"byteLength":21600,
			"byteOffset":619112,
			"target":34962
		},
		{
			"buffer":0,
			"byteLength":21600,
			"byteOffset":640712,
			"target":34962
		},
		{
			"buffer":0,
			"byteLength":14400,
			"byteOffset":662312,
			"target":34962
		},
		{
			"buffer":0,
			"byteLength":17856,
			"byteOffset":676712,
			"target":34962
		},
		{
			"buffer":0,
			"byteLength":17856,
			"byteOffset":694568,
			"target":34962
		},
		{
			"buffer":0,
			"byteLength":11904,
			"byteOffset":712424,
			"target":34962
		},
		{
			"buffer":0,
			"byteLength":17280,
			"byteOffset":724328,
			"target":34962
		},
		{
			"buffer":0,
			"byteLength":17280,
			"byteOffset":741608,
			"target":34962
		},
		{
			"buffer":0,
			"byteLength":11520,
			"byteOffset":758888,
			"target":34962
		},
		{
			"buffer":0,
			"byteLength":21600,
			"byteOffset":770408,
			"target":34962
		},
		{
			"buffer":0,
			"byteLength":21600,
			"byteOffset":792008,
			"target":34962
		},
		{
			"buffer":0,
			"byteLength":14400,
			"byteOffset":813608,
			"target":34962
		},
		{
			"buffer":0,
			"byteLength":17856,
			"byteOffset":828008,
			"target":34962
		},
		{
			"buffer":0,
			"byteLength":17856,
			"byteOffset":845864,
			"target":34962
		},
		{
			"buffer":0,
			"byteLength":11904,
			"byteOffset":863720,
			"target":34962
		},
		{
			"buffer":0,
			"byteLength":17280,
			"byteOffset":875624,
			"target":34962
		},
		{
			"buffer":0,
			"byteLength":17280,
			"byteOffset":892904,
			"target":34962
		},
		{
			"buffer":0,
			"byteLength":11520,
			"byteOffset":910184,
			"target":34962
		},
		{
			"buffer":0,
			"byteLength":21600,
			"byteOffset":921704,
			"target":34962
		},
		{
			"buffer":0,
			"byteLength":21600,
			"byteOffset":943304,
			"target":34962
		},
		{
			"buffer":0,
			"byteLength":14400,
			"byteOffset":964904,
			"target":34962
		},
		{
			"buffer":0,
			"byteLength":17856,
			"byteOffset":979304,
			"target":34962
		},
		{
			"buffer":0,
			"byteLength":17856,
			"byteOffset":997160,
			"target":34962
		},
		{
			"buffer":0,
			"byteLength":11904,
			"byteOffset":1015016,
			"target":34962
		},
		{
			"buffer":0,
			"byteLength":17280,
			"byteOffset":1026920,
			"target":34962
		},
		{
			"buffer":0,
			"byteLength":17280,
			"byteOffset":1044200,
			"target":34962
		},
		{
			"buffer":0,
			"byteLength":11520,
			"byteOffset":1061480,
			"target":34962
		},
		{
			"buffer":0,
			"byteLength":21600,
			"byteOffset":1073000,
			"target":34962
		},
		{
			"buffer":0,
			"byteLength":21600,
			"byteOffset":1094600,
			"target":34962
		},
		{
			"buffer":0,
			"byteLength":14400,
			"byteOffset":1116200,
			"target":34962
		}
	],
	"buffers":[
		{
			"byteLength":1130600,
			"uri":"tree.bin"
		}
	]
}
